<?xml version="1.0" encoding="utf-8"?>
<!-- Generator: Adobe Illustrator 22.0.0, SVG Export Plug-In . SVG Version: 6.00 Build 0)  -->
<svg version="1.1" id="图层_1" xmlns="http://www.w3.org/2000/svg" xmlns:xlink="http://www.w3.org/1999/xlink" x="0px" y="0px"
	 viewBox="0 0 1000 200.1" style="enable-background:new 0 0 1000 200.1;" xml:space="preserve">
<style type="text/css">
	.st0{fill:url(#SVGID_1_);}
	.st1{fill:url(#SVGID_2_);}
	.st2{fill:url(#SVGID_3_);}
	.st3{fill:url(#SVGID_4_);}
	.st4{fill:url(#SVGID_5_);}
	.st5{fill:url(#SVGID_6_);}
	.st6{fill:url(#SVGID_7_);}
	.st7{fill:url(#SVGID_8_);}
	.st8{fill:url(#SVGID_9_);}
	.st9{fill:url(#SVGID_10_);}
	.st10{fill:url(#SVGID_11_);}
	.st11{fill:url(#SVGID_12_);}
	.st12{fill:url(#SVGID_13_);}
	.st13{fill:url(#SVGID_14_);}
	.st14{fill:url(#SVGID_15_);}
	.st15{fill:url(#SVGID_16_);}
	.st16{fill:url(#SVGID_17_);}
	.st17{fill:url(#SVGID_18_);}
</style>
<g>
	<linearGradient id="SVGID_1_" gradientUnits="userSpaceOnUse" x1="27.1356" y1="107.8333" x2="972.6539" y2="107.8333">
		<stop  offset="0" style="stop-color:#5B3DE0"/>
		<stop  offset="1" style="stop-color:#5A7EFA"/>
	</linearGradient>
	<path class="st0" d="M294,79.7c-6.5-5.7-16.4-8.5-29.7-8.5c-10.3,0-20.9,0.5-31.7,1.6V143c10.6,0.9,21,1.4,30.9,1.4
		c12.9,0,22.8-3,29.8-9.3c7-6.3,10.4-15.6,10.4-28C303.7,94.4,300.5,85.3,294,79.7z M271.2,127.3c-1,5.9-2.8,8.9-5.5,8.9
		c-1.8,0-3.3-0.3-4.7-0.9V80.4c0.4-0.1,0.7-0.4,1.1-0.5c0.4-0.2,0.7-0.3,1.1-0.4c0.4-0.1,0.9-0.1,1.5-0.1c3.3,0,5.5,2.6,6.5,7.6
		s1.5,11.7,1.5,20C272.7,114.7,272.2,121.4,271.2,127.3z"/>
	<linearGradient id="SVGID_2_" gradientUnits="userSpaceOnUse" x1="27.5652" y1="116.4833" x2="971.7201" y2="116.4833">
		<stop  offset="0" style="stop-color:#5B3DE0"/>
		<stop  offset="1" style="stop-color:#5A7EFA"/>
	</linearGradient>
	<path class="st1" d="M335.2,128.8V88h-26v41.1c0,5.4,1.4,9.3,4.5,11.9c3,2.5,7.5,3.9,13.1,3.9c2,0,4-0.2,6.3-0.7s4-1.1,5.4-2
		c-1.2-2.1-2.1-4.2-2.6-6.4C335.4,133.7,335.2,131.4,335.2,128.8z"/>
	<linearGradient id="SVGID_3_" gradientUnits="userSpaceOnUse" x1="27.3497" y1="115.2333" x2="972.5001" y2="115.2333">
		<stop  offset="0" style="stop-color:#5B3DE0"/>
		<stop  offset="1" style="stop-color:#5A7EFA"/>
	</linearGradient>
	<path class="st2" d="M403.8,128.5V106c0-6.7-1.6-11.8-4.8-15.2c-3.2-3.3-8.1-5-14.7-5c-4.6,0-8.4,0.7-11.5,2.3
		c-3.1,1.6-5.4,4.3-6.9,8.2l-1.1-9.7L344,88h-0.2v55h26v-38.1v-3.7c0-2.3,0.2-4.1,0.7-5.5s1.6-2.1,3.1-2.1c1.4,0,2.5,0.7,3.1,2.2
		c0.6,1.4,1,3.3,1,5.6c0,2.4,0,3.7,0,4.1v23.3c0,5.4,1.6,9.3,4.7,11.9c3.2,2.5,7.5,3.9,13.1,3.9c2,0,4.1-0.2,6.3-0.7
		c2.2-0.5,3.9-1.1,5.3-2c-1.2-2.1-2.1-4.2-2.6-6.4C404,133.4,403.8,131.1,403.8,128.5z"/>
	<linearGradient id="SVGID_4_" gradientUnits="userSpaceOnUse" x1="26.979" y1="115.7833" x2="972.9953" y2="115.7833">
		<stop  offset="0" style="stop-color:#5B3DE0"/>
		<stop  offset="1" style="stop-color:#5A7EFA"/>
	</linearGradient>
	<path class="st3" d="M464.8,93.2c-5.3-4.9-13-7.2-22.9-7.3c-10,0-17.6,2.6-23,7.7c-5.4,5.1-8.1,12.6-8.1,22.3
		c0,5.9,1.3,11.2,3.9,15.6c2.6,4.5,6.3,7.9,11.1,10.4c4.8,2.5,10.1,3.7,16.1,3.7c6.1,0,11.5-1.2,16.2-3.8c4.8-2.5,8.3-6,10.9-10.7
		c2.6-4.5,3.8-9.9,3.8-16.2C472.8,105.2,470.2,98,464.8,93.2z M446.8,115.5c0,7.1-0.3,12.9-0.9,17.2c-0.6,4.3-1.9,6.3-4.1,6.3
		s-3.6-1.9-4.2-6.1c-0.7-4-0.9-9.5-0.9-16.3v-5.4c0-5.8,0.3-10.5,0.9-13.8c0.7-3.3,2-5,4.1-5c2.1,0,3.5,1.7,4.1,5.3
		c0.6,3.6,1,8.4,1,14.5V115.5z"/>
	<linearGradient id="SVGID_5_" gradientUnits="userSpaceOnUse" x1="26.8997" y1="115.9833" x2="973.0408" y2="115.9833">
		<stop  offset="0" style="stop-color:#5B3DE0"/>
		<stop  offset="1" style="stop-color:#5A7EFA"/>
	</linearGradient>
	<path class="st4" d="M521.8,114.7c-2-1.2-4.7-2.8-8.1-4.5c-4.5-2.4-7.8-4.5-9.9-6.3c-2.1-1.9-3.2-4.1-3.2-6.8
		c0-1.3,0.4-2.4,1.1-3.4c0.7-1,1.7-1.4,3-1c1.3,0,2.3,0.6,2.9,1.8c0.6,1.2,1,2.7,1,4.5l-0.2,5.8c1,0.5,3.1,0.7,6.5,0.7
		c3.6,0,6.8-0.8,9.7-2.5c2.9-1.8,4.4-4,4.4-6.8c0-3.6-2.5-6.2-7.7-7.7c-5.1-1.6-10.6-2.3-16.2-2.3c-7.9,0-14.4,1.4-19.6,4.2
		c-5.1,2.8-7.7,7.5-7.7,14c0,2.6,0.7,4.8,2.1,6.8c1.5,2,3.2,3.5,5.2,4.9c2,1.2,4.7,2.8,8.1,4.5c4.4,2.2,7.7,4.2,9.9,6
		c2.2,1.9,3.3,4.2,3.3,6.9c0,1.7-0.5,3.1-1.4,4.3c-1,1.2-2.2,1.8-3.7,1.8c-2,0-3.2-0.7-3.7-2.2s-0.7-3.6-0.7-6.5
		c0-1.4,0.1-3.3,0.2-5.8c-0.4-0.2-1.5-0.5-2.9-0.6c-1.5-0.1-2.7-0.2-3.7-0.2c-3.8,0-7.1,0.7-9.9,2.3c-2.8,1.6-4.2,4-4.2,7.2
		c0,4.3,2.5,7.4,7.5,9.2c5,1.7,10.6,2.7,16.9,2.7c8.4,0,15.2-1.5,20.4-4.4c5.3-3,7.9-8,7.9-14.9c0-2.6-0.7-4.8-2.1-6.8
		C525.5,117.6,523.8,116.1,521.8,114.7z"/>
	<linearGradient id="SVGID_6_" gradientUnits="userSpaceOnUse" x1="27.0759" y1="115.9333" x2="972.8798" y2="115.9333">
		<stop  offset="0" style="stop-color:#5B3DE0"/>
		<stop  offset="1" style="stop-color:#5A7EFA"/>
	</linearGradient>
	<path class="st5" d="M593.5,129v-22.5c0-7.8-2.6-13.1-8-16c-5.4-2.9-12.9-4.4-22.5-4.4c-7,0-13.4,0.9-19.4,2.9c-6.1,2-9,5.8-9,11.3
		c0,3.1,1.4,5.6,4.2,7.2c2.9,1.6,6.2,2.3,10.1,2.3c1,0,2.2-0.1,3.6-0.2c1.3-0.1,2.3-0.4,2.9-0.6c-0.1-2.5-0.2-4.4-0.2-5.8
		c0-3.6,0.5-6.1,1.5-8.1c0.9-1.8,2.8-2.8,5.6-2.8c2.1,0,3.6,0.8,4.2,2.7c0.6,1.9,1,4.3,1,7.4v9.5c-10.7,0-19.5,1.1-26.4,3.4
		c-6.9,2.2-10.3,7-10.3,14.1c0,5.6,2.2,9.8,6.9,12.4c4.6,2.5,10.3,3.9,17.2,3.9c3.3,0,6.1-0.6,8.7-1.7c2.4-1.1,4.3-2.9,5.3-5.3
		c2.7,4.3,8,6.4,16,6.4c2,0,4.1-0.2,6.4-0.7c2.4-0.5,4.1-1.1,5.5-2c-1.2-2.1-2.1-4.2-2.6-6.4C593.8,133.9,593.5,131.6,593.5,129z
		 M567.3,127.3c0,2.9-0.3,5.3-1.2,7.4c-0.7,2.1-2.2,3.1-4.3,3.2c-2.1,0-3.5-0.9-4.4-2.6s-1.4-3.8-1.4-6.4c0-4.2,0.9-7.2,2.6-9
		c1.7-1.7,4.5-2.7,8.7-2.7V127.3z"/>
	<linearGradient id="SVGID_7_" gradientUnits="userSpaceOnUse" x1="27.5286" y1="116.7333" x2="972.6833" y2="116.7333">
		<stop  offset="0" style="stop-color:#5B3DE0"/>
		<stop  offset="1" style="stop-color:#5A7EFA"/>
	</linearGradient>
	<path class="st6" d="M662.1,128.8l-0.2-41h-26v37.8c0,3.5-0.4,6.3-0.9,8.2c-0.5,1.9-1.8,2.9-3.9,2.9c-1.5,0-2.3-1.4-2.7-4.2
		c-0.4-2.9-0.5-8-0.5-15.5V87.9h-26.6v29.8c0,6.2,0.5,11.2,1.6,15.3c1.1,4,3.1,7.1,6,9.3c2.9,2.2,7.1,3.3,12.6,3.3
		c3.6,0,6.6-0.5,9.2-1.6c2.6-1.1,4.8-2.9,6.8-5.5c2.7,4.3,8,6.4,16,6.4c1.9,0,4.1-0.2,6.4-0.7s4.1-1.1,5.5-2
		c-1.2-2.1-2.1-4.2-2.6-6.4C662.3,133.7,662.1,131.4,662.1,128.8z"/>
	<linearGradient id="SVGID_8_" gradientUnits="userSpaceOnUse" x1="27.1843" y1="114.5333" x2="972.9361" y2="114.5333">
		<stop  offset="0" style="stop-color:#5B3DE0"/>
		<stop  offset="1" style="stop-color:#5A7EFA"/>
	</linearGradient>
	<path class="st7" d="M709.2,85.7c-4,0-7.3,0.9-10.1,2.7c-3,1.8-4.9,4.5-6.3,7.9l-1.1-9.7L671,88v55.3h26v-38.2c0-3.6,0.1-6,0.5-7.4
		c0.4-1.3,1.2-1.9,2.9-2c2.2,0,3.6,1,4.2,3.2c0.5,2.2,0.9,5,0.9,8.6c0,3-0.1,5.4-0.5,7.1c0.6,0.4,1.7,0.8,3.2,0.9
		c1.5,0.1,2.7,0.2,3.7,0.2c4.4,0,7.9-1.2,10.4-3.7c2.5-2.4,3.7-5.9,3.7-10.3c0-5-1.6-9-4.5-11.8C718.4,87.1,714.4,85.7,709.2,85.7z"
		/>
	<linearGradient id="SVGID_9_" gradientUnits="userSpaceOnUse" x1="27.0453" y1="60.4719" x2="973.0463" y2="60.4719">
		<stop  offset="0" style="stop-color:#5B3DE0"/>
		<stop  offset="1" style="stop-color:#5A7EFA"/>
	</linearGradient>
	<path class="st8" d="M338.5,55.2c0.1-0.4,0.1-0.7,0.1-1.1c0.1-1.2,0.1-2.5-0.1-3.8c-0.2-1-0.5-2.1-0.7-3.1c0-0.1,0-0.2-0.1-0.2
		c-0.1,0-0.1,0.1-0.1,0.2c-0.4,1-0.6,1.8-1,2.8c-0.4,1.1-0.9,2.2-1.4,3.2c-0.1,0.2-0.2,0.6-0.5,0.6c-1,0.4-1.7,0.9-2.5,1.6
		c-1.2,1.2-2.2,2.7-2.9,4.3c-0.1,0.1-0.1,0.4-0.4,0.5c-0.5,0.1-1,0.4-1.4,0.6c-0.1,0.1-0.2,0.1-0.2-0.1c0-0.5-0.2-0.9-0.2-1.2
		c-0.2-0.9-0.5-1.6-1-2.3c-0.1-0.1-0.1-0.2,0-0.5c0.2-0.6,0.4-1.2,0.5-1.8c0.4-1.8,0.1-3.7-0.5-5.4c-0.5-1.4-1.2-2.5-2.3-3.3
		c-0.1-0.1-0.2-0.2-0.1-0.4c0-0.2,0-0.5-0.1-0.7c-0.1-1.1-0.4-2.1-0.7-3.1c-0.4-1-0.7-2-1.1-2.9c0,0,0-0.1-0.1-0.1
		c-0.1,0-0.1,0.1-0.1,0.1c-0.2,0.6-0.5,1.2-0.7,1.8c-0.2,0.7-0.6,1.5-0.7,2.3c-0.1,0.7-0.2,1.5-0.2,2.2c0,0.4,0,0.7-0.4,1
		c-0.7,0.5-1.2,1.4-1.7,2.1c-0.7,1.5-1,2.9-0.9,4.5c0,0.2,0,0.4,0,0.6c0,1,0.2,2,0.6,2.9c0.1,0.2,0.1,0.5,0,0.6
		c-0.5,1.1-0.9,2.2-1.1,3.3c0,0.1,0,0.4-0.1,0.4c-0.1,0-0.4,0-0.4-0.2c0-0.1-0.1-0.1-0.2-0.1c-0.4,0.1-0.5-0.1-0.9-0.1
		c-0.4-0.1-0.4-0.4-0.5-0.6c0-0.1-0.1-0.1-0.1-0.2c-0.6-1.2-1.4-2.2-2.3-3.2c-0.7-0.9-1.7-1.5-2.7-2c-0.2-0.1-0.5-0.1-0.7-0.5
		c-1-1.6-1.6-3.3-2.2-4.9c-0.2-0.5-0.5-1.1-0.6-1.6c-0.1,0.4-0.2,0.7-0.4,1.1c-0.2,1-0.5,2-0.6,2.9c-0.1,1.2-0.1,2.5,0.1,3.7
		c0.1,0.6,0.2,1.1-0.2,1.6c0,0,0,0.1-0.1,0.2c-0.2,0.6-0.1,1.4-0.2,2.1v0.1v0.1c0,0.1,0,0.1,0,0.2c0.1,1,0.4,2.1,0.9,2.9
		c0.7,1.6,1.8,2.9,3.3,3.9c0.1,0.1,0.2,0.2,0.2,0.4c0.2,1.6,1,3.1,1.8,4.3c0.5,0.6,1,1.2,1.5,1.7c1,1.2,1.8,2.5,2.7,3.8
		c0.4,0.7,0.7,1.4,1.2,2c0.4,0.6,0.7,1.1,1.2,1.6c0.2-0.1,0.4,0,0.4,0.4c0.4,0.4,0.7,0.6,1.1,0.7c2.2,1,4.5,1,6.9,0.2
		c1.6-0.5,2.6-1.7,3.4-3.2c0.4-0.5,0.6-1.1,1-1.6v-0.1c0.1,0,0.1-0.1,0.1-0.1c0.9-1.4,1.6-2.6,2.6-3.8c0.5-0.6,1-1.2,1.4-1.8
		c0.6-0.9,1-1.8,1.4-2.8c0-0.1,0.1-0.2,0.1-0.4c-0.1-0.2,0-0.5,0.1-0.7c0-0.5,0.2-0.7,0.7-1.1c1.5-1.2,2.6-2.7,3.2-4.5
		c0-0.1,0-0.2,0-0.4c0.2-0.6,0.4-1.2,0.4-1.8c-0.8-1-0.9-2.1-1.4-3.3C338.5,55.6,338.5,55.5,338.5,55.2z"/>
	<linearGradient id="SVGID_10_" gradientUnits="userSpaceOnUse" x1="27.0794" y1="60.6264" x2="972.797" y2="60.6264">
		<stop  offset="0" style="stop-color:#5B3DE0"/>
		<stop  offset="1" style="stop-color:#5A7EFA"/>
	</linearGradient>
	<path class="st9" d="M147.3,63c-0.4-0.1-3.4-0.8-1.4,0.6c2,1.4,3.9-0.4,3.9-0.4c1.4-1.6,0-2.9,0-2.9c-1.9-2.4-5.4-3-5.4-3
		c-2.8-0.8-4,0.6-4,0.6c-1.1,1.4,0.2,1.2,0.2,1.2c0.3-0.5,1.2-0.7,1.2-0.7c0,1.1,1,1.9,1,1.9c2.1,2.6,4.9,1.8,4.9,1.8
		c0.8-0.1,1.1-0.4,1.1,0.2C148.8,62.9,147.5,63.1,147.3,63z"/>
	<linearGradient id="SVGID_11_" gradientUnits="userSpaceOnUse" x1="27.1438" y1="61.0038" x2="972.3137" y2="61.0038">
		<stop  offset="0" style="stop-color:#5B3DE0"/>
		<stop  offset="1" style="stop-color:#5A7EFA"/>
	</linearGradient>
	<path class="st10" d="M140.3,59.8c-0.2,0.2,0.4,1.8,1.6,2.2c0,0,0.5,0.5,0.6-0.2l-1.5-1.4C141,60.4,140.5,59.6,140.3,59.8z"/>
	<linearGradient id="SVGID_12_" gradientUnits="userSpaceOnUse" x1="27.0222" y1="83.3127" x2="973.1039" y2="83.3127">
		<stop  offset="0" style="stop-color:#5B3DE0"/>
		<stop  offset="1" style="stop-color:#5A7EFA"/>
	</linearGradient>
	<path class="st11" d="M101.3,69.2c0,0-4.7-1.7-10.9-1.5c0,0-6,0.1-6.8,0.6l0,0c0,0-7.7,0.9-12.8,4.2c0,0-5.9,3.1-7,4.7
		c0,0-0.6,0.5-0.2,1.2c0.4,0.7,1.1,0.5,1.9-0.2c0.1-0.1,0.5-0.3,0.9-0.6c-0.2,3.6,2,7.6,2,7.6c2.8,6.7,7.2,9.3,7.2,9.3
		c6.7,5.3,13,4.3,13,4.3c6.9,0,11.4-4.7,11.4-4.7h-0.5c0.3-0.1,0.6-0.1,0.7-0.3c0.8-0.7,4-3.2,6-8.7c0,0,1.4-3.8,1.6-6.9
		c0.2-3,0-4.4,0-4.4s1.5,1.8,2,1.1c0,0,1-0.7,0-1.5S106,70.4,101.3,69.2z M97,94.1l-0.2,0.2c-0.6,0.9-5.3,2.2-6.7,2.5
		c-1.4,0.3-4,0.2-4,0.2c-4.5-0.6-8.2-3.2-8.2-3.2c-4.7-3-6.7-7.5-6.7-7.5c-3.7-6.4-3-9.7-3-9.7l-1.1,0.6c1.9-1.1,4.7-2.8,5.3-3
		c0.9-0.2,4.1-2.3,9.8-3.3c0,0,0,0,0,0.1L82,71.5c0,0-1.6,3.6-1.2,6c0,0,5.3-0.5,6.8,1.2c0,0,2.9,2.4-3.3,4.9c0,0-1,0.5-2.2,0.8
		c0,0,0.8,2.4,4.4,5.6c3.6,3.2,8.7,3.8,9.4,3.9C96.5,94,97,94,97,94s0.3,0.1,0.6,0.1H97z"/>
	<linearGradient id="SVGID_13_" gradientUnits="userSpaceOnUse" x1="27.0647" y1="102.5833" x2="972.2843" y2="102.5833">
		<stop  offset="0" style="stop-color:#5B3DE0"/>
		<stop  offset="1" style="stop-color:#5A7EFA"/>
	</linearGradient>
	<path class="st12" d="M172.7,17.2H35.3c-9.2,0-16.8,7.5-16.8,16.8v137.3c0,1.8,0.3,3.4,0.8,5c0.1-0.3,0.1-0.5,0.1-0.5
		c0.9-5.7,4.4-9.8,4.4-9.8c1.5-1.9,2.3,0.1,2.3,0.1c1,7.5,4.2,10.2,4.2,10.2c5.4,5.5,15.4,3.7,15.4,3.7c8.6-1.3,12.6-5.1,12.6-5.1
		c5-4.2,6.9-11.3,6.9-11.3c1.4-5.8,0.3-10.9,0.3-10.9c-1.2-6.4-6-9.2-6-9.2c-1.4-0.8-5.2-4-5.2-4c-3.9-4.1-3.9-7.6-3.9-7.6
		c-0.6-5.3,3.7-11.1,3.7-11.1c0.7-2.1,0.3-5,0.3-5c-0.8-8.1,0-19.8,0-19.8c0.8-11.5,6.2-19,6.2-19c-0.2-18,19.5-20.2,19.5-20.2
		c8.3-1.5,17.4,2.6,17.4,2.6c1.2,0.4,2.8,0.6,4.6,0.6c0,0,0,0,0.1,0c5.5-0.1,12.8-1.8,16.6-2.9c0.7-0.2,1.5-0.5,2.5-0.7
		c0.5-0.1,1.2-0.3,2.1-0.5c4.7-1,10.5-1.8,14-2.2c11-1.9,20.9,0.9,23.3,1.7c1.7,0.5,3.6,1.4,5.6,2.5c10.2,5.2,13.9,10.3,14.3,10.9
		c0.8,1.1,1.5,2.2,2,3.2c0.1,0.2,0.2,0.4,0.3,0.6c0.1,0.2,0.2,0.3,0.2,0.5c1,2.2,1.2,3.7,1.2,3.7c0.5,1.9,0.5,4.1,0.4,6.3
		c-0.1,2.3-0.5,5-1.2,8c0,0-0.4,1.4-1.2,3.2c-1.8,4.5-4.6,5.7-4.6,5.7c0.3,5.5-2,7.6-3.3,8.3c0,0-1.9,1.4-3.8-0.3
		c-1.3-1-1.9-2.7-1.9-2.7c-0.7,0.5-2.6,3.3-2.6,3.3l-4.7,7.6c0.7,0.5,0.9,1.9,0.9,1.9c0.2,4.5-2.6,4.8-2.6,4.8
		c-1.8,0.2-3.2-2.4-3.2-2.4c-2,1.1-10.6,2.7-10.6,2.7c-4.3,0.8-6,3.1-6,3.1c-1.2,1.1-1.8,2.5-1.7,2.8l-0.7,0.1l1.1,0.3l5.4,1.7
		l6.2,2.4c0.9-2.2,2.6-3.5,4-3c1.4,0.5,1.8,2.6,1.2,4.8l4.7,1.4l3,0.9c0,0,0.6-0.3,1-0.6c1-1.7,2.4-2.7,3.6-2.2
		c1.4,0.5,1.9,2.8,1.1,5.2l0.1,0.1c0.6,0,0.9,0.5,0.9,0.5c2.6,5,1.1,12.9,1.1,12.9c-2.2,4.7-7.6,8.6-7.6,8.6
		c-6.3,4.8-14.4,7.2-14.4,7.2c-5.4,1.8-13.4,2.6-13.4,2.6c6.6,3.2,10,7.7,10,7.7c2.3,1.9,4.1,6.9,4.6,8.2h22.2
		c9.2,0,16.8-7.5,16.8-16.8V33.9C189.3,24.7,181.8,17.2,172.7,17.2z"/>
	<linearGradient id="SVGID_14_" gradientUnits="userSpaceOnUse" x1="26.8368" y1="107.5799" x2="973.0094" y2="107.5799">
		<stop  offset="0" style="stop-color:#5B3DE0"/>
		<stop  offset="1" style="stop-color:#5A7EFA"/>
	</linearGradient>
	<path class="st13" d="M806,104.1c-2.6-1.5-6.2-3.1-10.5-4.8c-3.6-1.4-6.5-2.7-8.6-3.8c-2.1-1-3.9-2.5-5.3-4.3
		c-1.4-1.8-2.1-4-2.1-6.7c0-2,0.5-3.6,1.6-4.8s2.6-1.8,4.5-1.8c4.4,0,6.6,2.9,6.6,8.6c0,2.1-0.1,4.8-0.5,7.9
		c2.7,0.1,4.5,0.2,5.7,0.2c4.8,0,8.7-1,11.7-3s4.5-5.2,4.5-9.5c0-4.5-2.8-7.7-8.2-9.7s-11.4-3-17.9-2.9c-5.6,0-10.9,0.9-15.9,2.7
		c-5,1.9-9.1,4.6-12.2,8.2s-4.7,7.9-4.7,13c0,4.2,0.9,7.7,2.8,10.4c1.8,2.7,4.1,4.8,6.8,6.4c2.6,1.5,6.2,3.1,10.5,4.8
		c3.6,1.4,6.5,2.7,8.6,3.8c2.1,1,3.9,2.5,5.3,4.3c1.4,1.8,2.1,4,2.1,6.7c0,2.4-0.7,4.2-2,5.5c-1.3,1.3-3.2,1.9-5.7,1.9
		c-3.3,0-5.5-1.2-6.6-3.5c-1.1-2.3-1.7-5.6-1.7-9.8c0-1.4,0.1-3.4,0.5-6.2c-2.5-0.1-4.4-0.2-5.7-0.2c-4.5,0-8.4,1.2-11.5,3.7
		c-3.1,2.4-4.7,5.9-4.7,10.4c0,5.2,2.8,8.8,8.3,10.9c5.5,2.1,12,3.1,19.5,3.1c10.2,0,18.6-1.9,24.9-5.8c6.3-3.9,9.5-10.2,9.5-18.9
		c0-4.2-0.9-7.7-2.8-10.4C811,107.8,808.8,105.7,806,104.1z"/>
	<linearGradient id="SVGID_15_" gradientUnits="userSpaceOnUse" x1="26.9709" y1="115.8318" x2="972.9888" y2="115.8318">
		<stop  offset="0" style="stop-color:#5B3DE0"/>
		<stop  offset="1" style="stop-color:#5A7EFA"/>
	</linearGradient>
	<path class="st14" d="M874.3,93c-5.3-4.9-13-7.3-23.1-7.2c-9.9,0-17.6,2.6-23,7.8c-5.5,5.1-8.2,12.6-8.2,22.4c0,6,1.4,11.2,4,15.7
		c2.7,4.5,6.4,7.9,11.1,10.4c4.7,2.5,10.1,3.7,16.1,3.7c6.2,0,11.6-1.3,16.3-3.8c4.7-2.6,8.3-6.2,10.9-10.8
		c2.6-4.6,3.9-10.1,3.9-16.3C882.3,105.1,879.8,97.9,874.3,93z M856.4,115.3c0,7.2-0.3,13-0.9,17.3c-0.5,4.4-2,6.6-4.1,6.6
		s-3.5-2.1-4.1-6.2c-0.6-4.1-0.9-9.6-0.9-16.4v-5.4c0-5.9,0.3-10.5,0.9-13.9c0.6-3.4,2-5.1,4.1-5.1s3.5,1.8,4.1,5.3
		c0.6,3.5,0.9,8.3,0.9,14.5V115.3z"/>
	<linearGradient id="SVGID_16_" gradientUnits="userSpaceOnUse" x1="26.8305" y1="105.0833" x2="973.0348" y2="105.0833">
		<stop  offset="0" style="stop-color:#5B3DE0"/>
		<stop  offset="1" style="stop-color:#5A7EFA"/>
	</linearGradient>
	<path class="st15" d="M940.2,67.1c-4.7-1.4-10.2-2.1-16.5-2.1c-8.9,0-16.2,1.3-21.9,3.8s-8.8,7.2-9.2,14l-0.3,5h-7.1v4.9h7.1v52.4
		l26.1-1.9V92.6h8.5v-4.9h-8.5v-6.5c0-3.5,0.3-6.2,0.8-8.1c0.5-1.9,1.8-2.9,3.8-2.9c1.4,0,2.4,0.6,2.9,1.8s0.8,2.7,0.8,4.5
		c0,2.7-0.1,4.5-0.2,5.7c1,0.6,3.2,0.9,6.5,0.9c3.7,0,7-0.6,9.9-1.9c2.9-1.2,4.3-3.2,4.3-6C947.2,71.2,944.9,68.5,940.2,67.1z"/>
	<linearGradient id="SVGID_17_" gradientUnits="userSpaceOnUse" x1="28.8068" y1="116.4333" x2="972.9708" y2="116.4333">
		<stop  offset="0" style="stop-color:#5B3DE0"/>
		<stop  offset="1" style="stop-color:#5A7EFA"/>
	</linearGradient>
	<path class="st16" d="M976,128.7L976,128.7l0-40.8h-26.1V129c0,5.4,1.5,9.4,4.6,12c3.1,2.6,7.5,3.9,13.2,3.9c1.9,0,4-0.2,6.3-0.7
		c2.3-0.5,4.1-1.1,5.4-2c-1.2-2.1-2.1-4.2-2.6-6.4S976,131.2,976,128.7z"/>
	<linearGradient id="SVGID_18_" gradientUnits="userSpaceOnUse" x1="27.0453" y1="60.4719" x2="973.0463" y2="60.4719">
		<stop  offset="0" style="stop-color:#5B3DE0"/>
		<stop  offset="1" style="stop-color:#5A7EFA"/>
	</linearGradient>
	<path class="st17" d="M980,55.7c-0.1-0.1-0.1-0.2-0.1-0.5c0.1-0.4,0.1-0.7,0.1-1.1c0.1-1.2,0.1-2.5-0.1-3.8c-0.2-1-0.5-2.1-0.7-3.1
		c0-0.1,0-0.2-0.1-0.2s-0.1,0.1-0.1,0.2c-0.4,1-0.6,1.8-1,2.8c-0.4,1.1-0.9,2.2-1.4,3.2c-0.1,0.2-0.2,0.6-0.5,0.6
		c-1,0.4-1.7,0.9-2.5,1.6c-1.2,1.2-2.2,2.7-2.9,4.3c-0.1,0.1-0.1,0.4-0.4,0.5c-0.5,0.1-1,0.4-1.4,0.6c-0.1,0.1-0.2,0.1-0.2-0.1
		c0-0.5-0.2-0.9-0.2-1.2c-0.2-0.9-0.5-1.6-1-2.3c-0.1-0.1-0.1-0.2,0-0.5c0.2-0.6,0.4-1.2,0.5-1.8c0.4-1.8,0.1-3.7-0.5-5.4
		c-0.5-1.4-1.2-2.5-2.3-3.3c-0.1-0.1-0.2-0.2-0.1-0.4c0-0.2,0-0.5-0.1-0.7c-0.1-1.1-0.4-2.1-0.7-3.1c-0.4-1-0.7-2-1.1-2.9
		c0,0,0-0.1-0.1-0.1s-0.1,0.1-0.1,0.1c-0.2,0.6-0.5,1.2-0.7,1.8c-0.2,0.7-0.6,1.5-0.7,2.3c-0.1,0.7-0.2,1.5-0.2,2.2
		c0,0.4,0,0.7-0.4,1c-0.7,0.5-1.2,1.4-1.7,2.1c-0.7,1.5-1,2.9-0.9,4.5c0,0.2,0,0.4,0,0.6c0,1,0.2,2,0.6,2.9c0.1,0.2,0.1,0.5,0,0.6
		c-0.5,1.1-0.9,2.2-1.1,3.3c0,0.1,0,0.4-0.1,0.4s-0.4,0-0.4-0.2c0-0.1-0.1-0.1-0.2-0.1c-0.4,0.1-0.5-0.1-0.9-0.1
		c-0.4-0.1-0.4-0.4-0.5-0.6c0-0.1-0.1-0.1-0.1-0.2c-0.6-1.2-1.4-2.2-2.3-3.2c-0.7-0.9-1.7-1.5-2.7-2c-0.2-0.1-0.5-0.1-0.7-0.5
		c-1-1.6-1.6-3.3-2.2-4.9c-0.2-0.5-0.5-1.1-0.6-1.6c-0.1,0.4-0.2,0.7-0.4,1.1c-0.2,1-0.5,2-0.6,2.9c-0.1,1.2-0.1,2.5,0.1,3.7
		c0.1,0.6,0.2,1.1-0.2,1.6c0,0,0,0.1-0.1,0.2c-0.2,0.6-0.1,1.4-0.2,2.1v0.1v0.1c0,0.1,0,0.1,0,0.2c0.1,1,0.4,2.1,0.9,2.9
		c0.7,1.6,1.8,2.9,3.3,3.9c0.1,0.1,0.2,0.2,0.2,0.4c0.1,0.5,0.2,1,0.3,1.4c-0.3,0.8-0.4,1.7-0.4,2.7c0,2.8,1.2,5,3.6,6.6
		c1.2,0.8,2.5,1.3,4.1,1.7c0.2,0.3,0.5,0.7,0.8,1c0.2-0.1,0.4,0,0.4,0.4c0.4,0.4,0.7,0.6,1.1,0.7c2.2,1,4.5,1,6.9,0.2
		c1.5-0.5,2.5-1.6,3.3-2.9c0.8-0.3,1.6-0.7,2.2-1.2c2.4-1.6,3.6-3.8,3.6-6.7c0-0.3,0-0.5,0-0.8c0.3-0.6,0.6-1.2,0.8-1.8
		c0-0.1,0.1-0.2,0.1-0.4c-0.1-0.2,0-0.5,0.1-0.7c0-0.5,0.2-0.7,0.7-1.1c1.5-1.2,2.6-2.7,3.2-4.5c0-0.1,0-0.2,0-0.4
		c0.2-0.6,0.4-1.2,0.4-1.8C980.6,58,980.5,56.9,980,55.7z"/>
</g>
</svg>
