<svg xmlns="http://www.w3.org/2000/svg" viewBox="0 0 976.97 279.64"><defs><style>.cls-1{fill:#fff;}</style></defs><title>资源 1</title><g id="图层_2" data-name="图层 2"><g id="图层_1-2" data-name="图层 1"><path class="cls-1" d="M400.14,126.26h-.32l-27,75.36h-8l-26-75.36h-.31L327.93,200H304.6l20-122H341l29.32,78.35L398.4,78h16.71l17.82,122H409.6Z"/><path class="cls-1" d="M466.35,101.35v26.17h36.89V147.7H466.35v32.16h38.31V200H443.18V81.17h61.48v20.18Z"/><path class="cls-1" d="M558.73,200H535.56V101.35h-24V81.17h71.1v20.18h-24Z"/><path class="cls-1" d="M637.71,156.06l-14.82-43.2h-.31l-13.09,43.2ZM602.87,175,593.1,200H568.66L615,78h18l45.09,122H653.32L644.18,175Z"/><path class="cls-1" d="M711.18,200H688V101.35H664V81.17h71.1v20.18h-24Z"/><path class="cls-1" d="M766.83,200H743.65V81.17h23.18Z"/><path class="cls-1" d="M872.45,126.26h-.31l-27,75.36h-8l-26-75.36h-.32L800.25,200H776.92l20-122h16.39l29.33,78.35L870.72,78h16.71l17.81,122H881.91Z"/><path class="cls-1" d="M938.67,101.35v26.17h36.89V147.7H938.67v32.16H977V200H915.49V81.17H977v20.18Z"/><path class="cls-1" d="M194.47,279.64a5,5,0,0,1-2.14-9.53,93.8,93.8,0,0,0,53.52-84.44V94A93.81,93.81,0,0,0,192.33,9.52a5,5,0,1,1,4.27-9A103.83,103.83,0,0,1,255.85,94v91.7a103.84,103.84,0,0,1-59.25,93.49A5.08,5.08,0,0,1,194.47,279.64Z"/><path class="cls-1" d="M61.39,279.64a5.12,5.12,0,0,1-2.14-.48A103.86,103.86,0,0,1,0,185.67V94A103.85,103.85,0,0,1,59.25.48a5,5,0,0,1,4.28,9A93.81,93.81,0,0,0,10,94v91.7a93.79,93.79,0,0,0,53.53,84.44,5,5,0,0,1-2.14,9.53Z"/><path class="cls-1" d="M153.84,209.32H102a19,19,0,0,1-14.72-31l68-83.12A6.83,6.83,0,0,0,150,84H107.69a6.84,6.84,0,0,0-5.4,11l17.5,22.53a6.8,6.8,0,0,1-.14,8.52h0a6.81,6.81,0,0,1-10.62-.16L89.63,101a19,19,0,0,1,15-30.69h48.53a19,19,0,0,1,14.71,31.06l-68,83.12a6.83,6.83,0,0,0,5.29,11.16h45.54a6.83,6.83,0,0,0,5.43-11l-18.6-24.27a6.83,6.83,0,0,1,.19-8.55l.21-.25a6.83,6.83,0,0,1,10.69.27l20.38,27A19,19,0,0,1,153.84,209.32Z"/></g></g></svg>