<?xml version="1.0" encoding="utf-8"?>
<!-- Generator: Adobe Illustrator 22.0.0, SVG Export Plug-In . SVG Version: 6.00 Build 0)  -->
<svg version="1.1" id="图层_1" xmlns="http://www.w3.org/2000/svg" xmlns:xlink="http://www.w3.org/1999/xlink" x="0px" y="0px"
	 viewBox="0 0 1000 215.3" style="enable-background:new 0 0 1000 200.1;" xml:space="preserve">
<path fill="#ffffff" d="M348.9,163.1L316,78.5h-0.9c0.9,6.6,0.9,15,0.9,24.4v61.1h-10.3V68.2h16.9l30.1,78h0.9l30.1-78h16.9v94.9h-11.3
        v-62c0-6.6,0-15,0.9-23.5h-0.9l-32.9,84.6L348.9,163.1L348.9,163.1z M480.5,163.1h-53.6V68.2h53.6v10.3h-41.4v31h39.5v10.3h-39.5
        v33.8h41.4V163.1z M531.3,163.1H520V77.6h-30.1v-9.4h71.4v10.3h-30.1V163.1L531.3,163.1z M635.6,163.1L624.3,133h-38.5l-11.3,30.1
        h-11.3l37.6-95.9h9.4l37.6,95.9H635.6z M620.5,122.7l-11.3-29.1c-1.9-3.8-2.8-8.5-3.8-13.2c-0.9,3.8-2.8,8.5-4.7,13.2l-11.3,29.1
        H620.5z M690.1,163.1h-11.3V77.6h-30.1v-9.4h71.4v10.3h-30.1L690.1,163.1L690.1,163.1z M734.3,163.1V68.2h11.3v94.9
        C745.5,163.1,734.3,163.1,734.3,163.1z M814.2,163.1l-32.9-84.6h-0.9c0.9,6.6,0.9,15,0.9,24.4v61.1h-9.4V68.2h16.9l30.1,78l0,0
        l30.1-78h16.9v94.9h-11.3v-62c0-6.6,0-15,0.9-23.5h-0.9l-32.9,85.5C821.7,163.1,814.2,163.1,814.2,163.1z M944.8,163.1h-53.6V68.2
        h53.6v10.3h-41.4v31h39.5v10.3h-39.5v33.8h41.4V163.1z"/>
      <path id="形状_4_拷贝" fill="#ffffff" d="M175.6,11.9c0,0-2.8,2.8,1.9,4.7c22.6,12.2,36.7,35.7,36.7,61.1v68.6
        c0,0-6.6,38.5-38.5,51.7c-0.9,0.9-0.9,2.8,0,4.7c0,0,0,2.8,4.7,0.9c22.6-11.3,37.6-32.9,39.5-57.3V70.2c0,0-1.9-41.4-41.4-59.2
        C177.5,11,176.6,11,175.6,11.9z"/>
      <path id="形状_4_拷贝_1_" fill="#ffffff" d="M85.4,11C45.9,29.8,44.1,70.2,44.1,70.2v76.1c1.9,24.4,17.9,47,39.5,57.3
        c4.7,1.9,4.7-0.9,4.7-0.9c0.9-0.9,0.9-2.8,0-4.7c-31-13.2-38.5-51.7-38.5-51.7V78.7c0-25.4,14.1-48.9,36.7-61.1
        c3.8-2.8,1.9-4.7,1.9-4.7C88.2,11,87.3,11,85.4,11z"/>
      <path fill="#ffffff" d="M98.6,141.1c-3.2,4.5-1,11.7,0.8,13.9c1.8,2.2,5.7,6.2,10.5,6.2h42.3c4.7,0,8.4-3.5,10.3-7.6
        c2.2-4.8,1.8-10-0.9-14.3l-15-20.1c-2.3-2.5-5.8-2.2-7.9-0.4c-1.9,1.9-2.2,5.2,0.4,8c1.6,2.1,12.2,16.2,12.2,16.2
        c1.4,2.6,0.4,5.9-2.2,7.4c-0.2,0.1-0.4,0.2-0.6,0.3h-34.8c0,0-7.4-2.3-1.9-9.5l53.6-66.8c3.2-4.5,1-11.7-0.8-13.9
        c-1.8-2.2-5.7-6.2-10.5-6.2h-42.3c-4.7,0-8.4,3.5-10.3,7.6c-2.2,4.8-1.8,10,0.9,14.3l15,20.1c2.3,2.5,5.8,2.2,7.9,0.4
        c1.9-1.9,2.2-5.2-0.4-8c-1.6-2.1-12.2-16.2-12.2-16.2c-1.4-2.6-0.4-5.9,2.2-7.4c0.2-0.1,0.4-0.2,0.6-0.3h34.8c0,0,7.4,2.3,1.9,9.5
        L98.6,141.1z"/>
</svg>
