<?xml version="1.0" encoding="utf-8"?>
<!-- Generator: Adobe Illustrator 22.0.0, SVG Export Plug-In . SVG Version: 6.00 Build 0)  -->
<svg version="1.1" id="图层_1" xmlns="http://www.w3.org/2000/svg" xmlns:xlink="http://www.w3.org/1999/xlink" x="0px" y="0px"
	 viewBox="0 0 200 200" style="enable-background:new 0 0 200 200;" xml:space="preserve">
<style type="text/css">
	.st0{fill:#FFFFFF;}
	.st1{fill:url(#SVGID_1_);}
	.st2{fill:url(#SVGID_2_);}
</style>
<path class="st0" d="M134.3,31.9l25-29.7c0,0-19,6.3-30.1,6.3c-11.1,0-28.7-6.1-28.7-6.1s-19,6.1-30.1,6.1S41.2,2.6,41.2,2.6
	l24.3,29.3H134.3z"/>
<path class="st0" d="M133.3,36.8H65.4c0,0-62,38.7-62,98.8s78.5,61.8,78.5,61.8s19.1,1,35.5,0c0,0.5,79.2-7.2,79.2-60.7
	C196.5,83.2,133.3,36.8,133.3,36.8L133.3,36.8z"/>
<g>
	
		<linearGradient id="SVGID_1_" gradientUnits="userSpaceOnUse" x1="46.0168" y1="184.0056" x2="154.6168" y2="184.0056" gradientTransform="matrix(1 0 0 -1 0 202)">
		<stop  offset="0" style="stop-color:#656565"/>
		<stop  offset="1" style="stop-color:#080808"/>
	</linearGradient>
	<path class="st1" d="M131.6,30.3l22.9-24.6c0,0-17.5,5.2-27.7,5.2s-26.4-5.1-26.4-5.1S83,10.9,72.7,10.9C62.5,10.9,45.9,6,45.9,6
		l22.5,24.3H131.6z"/>
	<linearGradient id="SVGID_2_" gradientUnits="userSpaceOnUse" x1="6.45" y1="117.3667" x2="193.55" y2="117.3667">
		<stop  offset="0" style="stop-color:#656565"/>
		<stop  offset="1" style="stop-color:#080808"/>
	</linearGradient>
	<path class="st2" d="M132.4,39.3H66.6c0,0-60.1,37.5-60.1,95.8c0,58.2,76,59.9,76,59.9s18.6,1,34.4,0c0,0.5,76.7-6.9,76.7-58.8
		C193.6,84.2,132.4,39.3,132.4,39.3L132.4,39.3z"/>
	<path class="st0" d="M88.5,103.5c-0.3,5.1,2.2,8.3,7.7,9.6V92C91.4,92.3,88.8,96.1,88.5,103.5z M103.4,164.9v4.8h-6.7v-4.8
		c-18.6-0.3-27.8-9.1-27.8-26.4h17.8c0,8.6,3.4,13.3,10.1,13.9v-22.1c-19.2-3.2-28.2-11.8-26.9-25.9C71.1,90.7,80,82.6,96.7,80v-5.8
		h6.7V80c17.3,1.9,25.9,10.1,25.9,24.5h-17.8c-0.6-7.7-3.4-11.8-8.2-12.5v23c18.5,3.5,27.8,11.8,27.8,25
		C129.6,155,120.3,163.3,103.4,164.9L103.4,164.9z M102.9,131.8v20.6c5.4-0.6,8.3-4,8.6-10.1C111.5,137.3,108.6,133.7,102.9,131.8z"
		/>
</g>
</svg>
