<?xml version="1.0" encoding="utf-8"?>
<!-- Generator: Adobe Illustrator 22.0.0, SVG Export Plug-In . SVG Version: 6.00 Build 0)  -->
<svg version="1.1" id="图层_1" xmlns="http://www.w3.org/2000/svg" xmlns:xlink="http://www.w3.org/1999/xlink" x="0px" y="0px"
	 viewBox="0 0 512 512" style="enable-background:new 0 0 512 512;" xml:space="preserve">
<style type="text/css">
	.st0{fill:#FFFFFF;}
</style>
<circle cx="256" cy="256" r="256" fill="#131314"/>
<path class="st0" d="M144.5,368c-10.7,14.9-3.3,39,2.6,46.4c5.9,7.4,19,20.7,35.1,20.7h141.4c15.5,0,28-11.8,34.6-25.5
	c7.4-16.1,5.9-33.3-3.1-47.9l-50.3-67c-7.7-8.2-19.3-7.3-26.3-1.3c-6.4,6.4-7.2,17.3,1.2,26.8c5.3,7,40.8,54.3,40.8,54.3
	c4.8,8.8,1.5,19.8-7.4,24.6c-0.7,0.4-1.3,0.7-2.1,0.9H194.7c0,0-24.8-7.8-6.3-31.9l179.1-223.4c10.7-14.9,3.3-39-2.6-46.4
	c-5.9-7.4-19-20.7-35.1-20.7H188.5c-15.5,0-28,11.8-34.6,25.5c-7.4,16.1-5.9,33.3,3.1,47.9l50.3,67c7.7,8.2,19.3,7.3,26.3,1.3
	c6.4-6.4,7.2-17.3-1.2-26.8c-5.3-7-40.8-54.3-40.8-54.3c-4.8-8.8-1.5-19.8,7.4-24.6c0.7-0.4,1.3-0.7,2.1-0.9h116.2
	c0,0,24.8,7.8,6.3,31.9L144.5,368z"/>
</svg>
