<?xml version="1.0" encoding="utf-8"?>
<!-- Generator: Adobe Illustrator 22.0.0, SVG Export Plug-In . SVG Version: 6.00 Build 0)  -->
<svg version="1.1" id="图层_1" xmlns="http://www.w3.org/2000/svg" xmlns:xlink="http://www.w3.org/1999/xlink" x="0px" y="0px"
	 viewBox="0 0 307.9 403.2" style="enable-background:new 0 0 307.9 403.2;" xml:space="preserve">
<style type="text/css">
	.st0{fill:#FFFFFF;}
	.st1{fill:none;stroke:#FFFFFF;stroke-width:0.3239;stroke-dasharray:1.3,1.3;}
	.st2{opacity:0.5;fill:none;stroke:#FFFFFF;stroke-width:0.3239;}
	.st3{opacity:0.5;fill:none;stroke:#FFFFFF;stroke-width:0.3239;stroke-dasharray:1.3,1.3;}
	.st4{fill:none;stroke:#FFFFFF;stroke-width:0.3239;}
	.st5{fill:none;stroke:#FFFFFF;stroke-width:6.4781;stroke-dasharray:1.3,1.3;}
</style>
<title>资源 3</title>
<path class="st0" d="M176.9,181.7c-0.7,0-1.3-0.4-1.5-1c-0.4-0.9-0.1-1.9,0.8-2.3l0,0c11.2-5.3,18.2-16.5,18.3-28.9v-31.3
	c-0.1-12.4-7.1-23.6-18.3-28.9c-0.9-0.3-1.4-1.3-1.1-2.2c0.3-0.9,1.3-1.4,2.2-1.1c0.2,0.1,0.3,0.1,0.4,0.2
	c12.3,5.9,20.2,18.3,20.3,31.9v31.3c-0.1,13.7-7.9,26.1-20.3,31.9C177.4,181.6,177.1,181.7,176.9,181.7z"/>
<path class="st0" d="M131.4,181.7c-0.3,0-0.5-0.1-0.7-0.2c-12.3-5.9-20.2-18.3-20.3-31.9v-31.3c0.1-13.7,7.9-26.1,20.3-31.9
	c0.9-0.4,1.9-0.1,2.3,0.8c0.4,0.9,0.1,1.9-0.8,2.3l0,0c-11.1,5.3-18.2,16.5-18.3,28.9v31.3c0,12.4,7.1,23.6,18.3,28.9
	c0.9,0.4,1.3,1.4,0.9,2.2C132.8,181.4,132.1,181.7,131.4,181.7L131.4,181.7z"/>
<g>
	<g>
		<path class="st1" d="M2.6,350c0,22.1,17.9,40,40,40h223.2c22.1,0,40-17.9,40-40V50.6c0-22.1-17.9-40-40-40H42.6
			c-22.1,0-40,17.9-40,40V350z"/>
	</g>
	<g>
		<path class="st2" d="M7.4,343.5c0,22.1,17.9,40,40,40H264c22.1,0,40-17.9,40-40V54.9c0-22.1-17.9-40-40-40H47.4
			c-22.1,0-40,17.9-40,40V343.5z"/>
	</g>
	<g>
		<path class="st2" d="M9,342.4c0,22.1,17.9,40,40,40h211c22.1,0,40-17.9,40-40V58.2c0-22.1-17.9-40-40-40H49c-22.1,0-40,17.9-40,40
			V342.4z"/>
	</g>
	<g>
		<path class="st3" d="M11.2,341c0,22.1,17.9,40,40,40h206c22.1,0,40-17.9,40-40V62c0-22.1-17.9-40-40-40h-206
			c-22.1,0-40,17.9-40,40V341z"/>
	</g>
	<g>
		<path class="st2" d="M14,335.8c0,22.1,17.9,40,40,40h200.4c22.1,0,40-17.9,40-40V66.6c0-22.1-17.9-40-40-40H54
			c-22.1,0-40,17.9-40,40V335.8z"/>
	</g>
	<g>
		<path class="st1" d="M15.9,333.1c0,22.1,17.9,40,40,40h196.9c22.1,0,40-17.9,40-40V67.5c0-22.1-17.9-40-40-40H55.9
			c-22.1,0-40,17.9-40,40V333.1z"/>
	</g>
	<g>
		<path class="st4" d="M18.5,331.1c0,22.1,17.9,40,40,40h191.5c22.1,0,40-17.9,40-40V71c0-22.1-17.9-40-40-40H58.5
			c-22.1,0-40,17.9-40,40V331.1z"/>
	</g>
	<g>
		<path class="st4" d="M22.2,329.5c0,22.1,17.9,40,40,40h186.1c22.1,0,40-17.9,40-40V74.6c0-22.1-17.9-40-40-40H62.2
			c-22.1,0-40,17.9-40,40V329.5z"/>
	</g>
	<g>
		<path class="st1" d="M24.1,326.7c0,22.1,17.9,40,40,40h180.8c22.1,0,40-17.9,40-40v-248c0-22.1-17.9-40-40-40H64.1
			c-22.1,0-40,17.9-40,40V326.7z"/>
	</g>
	<g>
		<path class="st5" d="M32.4,318.9c0,22.1,17.9,40,40,40h165.1c22.1,0,40-17.9,40-40V87.6c0-22.1-17.9-40-40-40H72.4
			c-22.1,0-40,17.9-40,40V318.9z"/>
	</g>
</g>
<path class="st0" d="M162.6,229.4H65.9c-0.9,0-1.6-0.7-1.6-1.6l0,0c0-0.9,0.7-1.6,1.6-1.6h96.7c0.9,0,1.6,0.7,1.6,1.6l0,0
	C164.2,228.6,163.5,229.4,162.6,229.4z"/>
<path class="st0" d="M202.7,262.6H65.9c-0.9,0-1.6-0.7-1.6-1.6l0,0c0-0.9,0.7-1.6,1.6-1.6h136.8c0.9,0,1.6,0.7,1.6,1.6l0,0
	C204.3,261.9,203.6,262.6,202.7,262.6z"/>
<path class="st0" d="M143.3,304.6H65.9c-0.9,0-1.6-0.7-1.6-1.6v0c0-0.9,0.7-1.6,1.6-1.6h77.5c0.9,0,1.6,0.7,1.6,1.6v0
	C145,303.9,144.2,304.6,143.3,304.6z"/>
<path class="st0" d="M138.9,149.7L138.9,149.7c-1.2-1.2-1.2-3.2,0-4.4l26.1-26.1c1.2-1.2,3.2-1.2,4.4,0v0c1.2,1.2,1.2,3.2,0,4.4
	l-26.1,26.1C142.1,150.9,140.1,150.9,138.9,149.7z"/>
<path class="st0" d="M139,119.3L139,119.3c1.2-1.2,3.2-1.2,4.4,0l26.1,26.1c1.2,1.2,1.2,3.2,0,4.4l0,0c-1.2,1.2-3.2,1.2-4.4,0
	L139,123.7C137.8,122.5,137.8,120.5,139,119.3z"/>
</svg>
