<?xml version="1.0" encoding="utf-8"?>
<!-- Generator: Adobe Illustrator 22.0.0, SVG Export Plug-In . SVG Version: 6.00 Build 0)  -->
<svg version="1.1" id="图层_1" xmlns="http://www.w3.org/2000/svg" xmlns:xlink="http://www.w3.org/1999/xlink" x="0px" y="0px"
	 viewBox="0 0 100 100" style="enable-background:new 0 0 100 100;" xml:space="preserve">
<style type="text/css">
	.st0{fill:#577AF1;}
	.st1{fill:#7897EF;}
	.st2{fill:#7C9CF7;}
	.st3{fill:#6A68EA;}
	.st4{opacity:0.7;}
	.st5{fill:#FFF3D4;}
	.st6{fill:#BBD0FF;}
	.st7{opacity:0.7;fill:#FFF3D4;enable-background:new    ;}
</style>
<path class="st0" d="M0.2,46.2c2.3-27.5,26.4-48.1,54-46c27.5,2.1,48,26.2,45.7,53.7c-2.3,27.5-26.4,48.1-54,46
	C18.3,97.6-2.1,73.6,0.2,46.2z"/>
<path class="st1" d="M100,49.4c-13.1,20.3-38.9,33-67.3,30.8c-9.7-0.8-18.9-3.2-27.1-7C1.9,66-0.2,57.8,0,49.2
	c8.3,10.2,20.6,17.1,34.7,18.2c27.5,2.1,51.7-18.5,54-46c0.1-1,0.1-2,0.2-3C95.8,26.8,99.9,37.8,100,49.4z"/>
<path class="st2" d="M45.4,97.3c27.5,2.1,51.7-18.5,54-46c0.3-4.1,0.2-8.2-0.5-12c1,4.7,1.3,9.6,0.9,14.6c-2.3,27.5-26.4,48.1-54,46
	C22.5,98,4.2,80.3,0.6,58.2C5.1,79.1,22.9,95.5,45.4,97.3z"/>
<path class="st1" d="M7,46.7C9,22.9,29.8,5.1,53.6,6.9C77.3,8.7,94.9,29.5,93,53.3c-2,23.7-22.8,41.5-46.6,39.7
	C22.7,91.1,5.1,70.3,7,46.7z"/>
<path class="st3" d="M38,72.3c23.7,1.8,44.6-15.9,46.5-39.7c0.3-3,0.2-6-0.2-8.9c6.2,8.1,9.5,18.5,8.6,29.6
	C91,76.9,70.2,94.8,46.4,92.9C25.7,91.3,9.6,75.3,7.2,55.5C14.3,64.8,25.3,71.3,38,72.3z"/>
<path class="st1" d="M8.9,46.8C10.8,24,30.7,7,53.4,8.7C76.1,10.5,93,30.3,91.1,53.2c-1.9,22.7-21.8,39.7-44.5,38
	C23.9,89.3,7,69.5,8.9,46.8z"/>
<g class="st4">
	<path class="st5" d="M44.3,12.3c1.2-0.2,2.4-0.3,3.6-0.3c9.8-0.5,18.9,3,25.8,8.9c-6.3-3.4-13.5-5.2-21.2-4.8
		c-2.8,0.1-5.4,0.5-8,1.2L44.3,12.3z"/>
	<path class="st5" d="M14.9,36.5l4.4-0.2c-3.6,6.3-5.6,13.6-5.3,21.4c-0.6-2.3-1-4.8-1.1-7.3C12.7,45.5,13.4,40.8,14.9,36.5z"/>
</g>
<path class="st6" d="M70.6,60.7L70.6,60.7c0.1-0.1,0.1-0.3,0.2-0.4c1.9-3.5,2.9-7.5,2.9-11.7c0-13.8-11.2-24.9-24.9-24.9
	c-13.8,0-24.9,11.2-24.9,24.9c0,13.8,11.2,24.9,24.9,24.9c4,0,7.7-0.9,11-2.6l0,0c6.6-0.2,13.2-0.5,19.8-0.7
	C76.5,67.1,73.5,63.9,70.6,60.7z M39,47.3c-2,0-3.6-1.6-3.6-3.6c0-2,1.6-3.6,3.6-3.6c2,0,3.6,1.6,3.6,3.6C42.5,45.7,41,47.3,39,47.3
	z M57.3,47.3c-2,0-3.6-1.6-3.6-3.6s1.6-3.6,3.6-3.6s3.6,1.6,3.6,3.6S59.2,47.3,57.3,47.3z"/>
<path class="st7" d="M49.7,81.7c21.5-1,38.1-19,37.3-40.4c0.6,2.3,0.9,4.6,1.1,7c1,19.7-14.2,36.5-33.9,37.4
	c-9.5,0.4-18.3-2.9-25.1-8.7C35.3,80.3,42.3,82,49.7,81.7z"/>
</svg>
