<svg xmlns="http://www.w3.org/2000/svg" viewBox="0 0 307.9 307.9"><defs><style>.cls-1{fill:#47a2f4;}.cls-2{fill:#fff;}</style></defs><title>资源 3</title><g id="图层_2" data-name="图层 2"><g id="图层_1-2" data-name="图层 1"><circle class="cls-1" cx="153.95" cy="153.95" r="153.95"/><path class="cls-2" d="M195.68,241.64a3.16,3.16,0,0,1-2.84-1.8,3.12,3.12,0,0,1,1.5-4.17,58.84,58.84,0,0,0,33.57-53V125.2a58.83,58.83,0,0,0-33.57-53A3.14,3.14,0,1,1,197,66.57a65.13,65.13,0,0,1,37.16,58.63v57.51A65.14,65.14,0,0,1,197,241.34,3.19,3.19,0,0,1,195.68,241.64Z"/><path class="cls-2" d="M112.22,241.64a3.14,3.14,0,0,1-1.33-.3,65.13,65.13,0,0,1-37.16-58.63V125.2a65.12,65.12,0,0,1,37.16-58.63,3.13,3.13,0,1,1,2.67,5.67A58.82,58.82,0,0,0,80,125.2v57.51a58.83,58.83,0,0,0,33.56,53,3.13,3.13,0,0,1-1.34,6Z"/><path class="cls-2" d="M170.2,197.54H137.7a11.92,11.92,0,0,1-9.23-19.47l42.65-52.13a4.29,4.29,0,0,0-3.32-7H141.26a4.29,4.29,0,0,0-3.39,6.92l11,14.13a4.26,4.26,0,0,1-.09,5.34h0a4.28,4.28,0,0,1-6.66-.1l-12.16-15.62a11.92,11.92,0,0,1,9.41-19.25h30.43A11.93,11.93,0,0,1,179,129.84L136.36,182a4.29,4.29,0,0,0,3.32,7h28.56a4.29,4.29,0,0,0,3.41-6.9L160,166.85a4.29,4.29,0,0,1,.12-5.36l.13-.16a4.3,4.3,0,0,1,6.71.17l12.78,16.93A11.92,11.92,0,0,1,170.2,197.54Z"/><path class="cls-2" d="M154,293.89C76.8,293.89,14,231.11,14,154S76.8,14,154,14,293.89,76.8,293.89,154,231.11,293.89,154,293.89Zm0-270.51C82,23.38,23.38,82,23.38,154S82,284.52,154,284.52,284.53,226,284.53,154,226,23.38,154,23.38Z"/></g></g></svg>