<?xml version="1.0" encoding="utf-8"?>
<!-- Generator: Adobe Illustrator 22.0.0, SVG Export Plug-In . SVG Version: 6.00 Build 0)  -->
<svg version="1.1" id="图层_1" xmlns="http://www.w3.org/2000/svg" xmlns:xlink="http://www.w3.org/1999/xlink" x="0px" y="0px"
	 viewBox="0 0 500 500" style="enable-background:new 0 0 500 500;" xml:space="preserve">
<style type="text/css">
	.st0{fill:#F5F3F3;}
	.st1{fill:#FFFFFF;}
	.st2{fill:#94A6C3;}
	.st3{fill:#1B314F;}
	.st4{fill:#FFD923;}
	.st5{fill:#D82122;}
</style>
<circle class="st0" cx="250" cy="250" r="250"/>
<g>
	<path class="st1" d="M145.2,277.4l10.7-80.3l-92.7-64.3l84.7,28.7l20-30.7l73-45.3l161,88.7l8.3,135.4l-71.7,99.7l-56.7,8.7
		l29.3-53.7v-51.7l-21.3-40.3l-21.7-14.3l-33.3,34.3v36.3l-26,24.3l-33,4l-14.7,8.3l-24-7.7l-10-36l18-25.3V277.4z"/>
	<path class="st2" d="M293.2,132c-17.7-3.7-37-2.7-37-2.7s-6.3,29.3-45.7,37C210.9,166.4,262.6,184,293.2,132z"/>
	<path class="st2" d="M309.2,398.1c21.3-16.7,37.3-39.7,44.7-65.7c0.3-1,3.3-2.7,5.3-4c3.3-2,6.7-3.7,7.3-6.3c1.3-7.7,2-15.7,2-23.7
		c0-3-3-6-6-9c-2.3-2-4.7-4.3-4.7-6c-3.3-30.3-17.3-58.7-39.7-79.3l-2.3,2.3c21.7,20.3,35.7,48,38.7,77.3c0.3,2.7,3,5.3,5.7,8
		c2.3,2,5,5,5,6.3c0,7.7-0.7,15.3-2,23c-0.3,1.3-3.3,2.7-5.7,4c-3.3,1.7-6.3,3.3-7,6c-8,28.3-26.3,53-50.7,69
		c4.3-9.3,18-39.7,25.3-55l-1.3-49.3l-42.3-41l-24,3.3l-26.3,42.7c0,0,12.3,15.7-5,34c-17,18-30.3,22-30.3,22l-12.3-6.7
		c3.7-4.7,11-11.7,16.7-16.3c9.7-8,19.3-8.7,19.3-17.3c0.3-18-19-13-19-13l-7,6.7l-3,24.7l-14.7,18.3l-1.7-0.3l-24-5.3
		c0,0,14.7-7.7,17-16.3c2.3-8.3-4.7-36-5-37.7c0.3,0.3,7,6,10,15.3c5.3-14.7,12.3-28.7,14.3-30s29-15.7,29-15.7l-9,23.7l6.7-3.7
		l16-39.3c0,0,15.7-7.7,27.3-7.7c21-0.3,52-26,38-72c4,1.7,73.3,36.3,85.3,104.3C388.9,320.7,359.2,369.7,309.2,398.1z"/>
	<path class="st3" d="M229.9,139.4c7.7-9,4.7-22.3,4.7-22.3l-22.3,33C211.9,150,220.2,150.4,229.9,139.4z"/>
	<path class="st3" d="M154.9,319.7l2.7-13.3c0,0-11,19.3-12,22c-1,3,0.7,8.3,5,8c4.3-0.3,9.7-6.7,9.7-11.3
		C160.2,319.1,154.9,319.7,154.9,319.7z"/>
	<path class="st3" d="M352.9,107.7c0,0,16.7,0.7,34,2.7c-39-30.7-76-39.7-106-39.7c-41.3,0-69.3,17-71,18l13-20.7c0,0-52-5-70.3,50
		c-4.7-11.7-9-28.7-9-28.7s-27,23.7-14.3,63c-31-11.3-75.3-27-77-27.3c-2.3-0.3-3,0.7-3,0.7s-0.7,1,1.3,2.7c3.7,3,73.7,54.7,89,64.7
		c-3.3,12-3.3,17.7,0,23.3c4.7,7.7,5,11.7,4.3,17.3c-0.7,5.7-6.7,54.7-8,60.7c-1.3,6-15.3,27.3-14.7,33.7c0.7,6.3,9.3,33.3,17,36.3
		c5.7,2,19.7,6.3,29,6.3c3.3,0,6.3-0.7,7.7-2c5.7-5,7.3-6,11.3-6c0.3,0,0.7,0,1,0c1.7,0,3.7,0.3,6,0.3c5.3,0,12.3-1,17.3-5.7
		c7.3-7.3,20-17.3,24-22c5-6.3,7.7-15,6.3-23.7c-1-8,3.3-15,8.3-22c6.3-8.3,18-23.3,18-23.3c23,17.3,37.3,43.7,37.3,73
		c0,52-45.3,94-101.3,94c-8.7,0-17-1-25.3-3c25.7,9,47.3,12,65,12c37.7,0,57.7-13.7,57.7-13.7s-7,9-18.3,19.3c0.3,0,0.3,0,0.3,0
		c62.3-8.7,92.7-60,92.7-60s-2.3,16.7-5.3,28c83-62.3,69-140.4,68.7-143c0.7,1,9,11,13.3,16.3C465.3,152,352.9,107.7,352.9,107.7z
		 M225.2,327.1c-1.3,1.7-7,6.7-11,10.3c-4,3.7-8.3,7.3-11.7,10.7c-1.3,1.3-4,2-8,2c-1.3,0-2.7,0-3.7,0c-0.7,0-1.3,0-2,0
		c-0.7,0-1,0-1.3,0c-1,0-2,0-3,0c5-6.7,19.7-22,24.7-25.3c6-4,9-8,5.3-15c-3.7-7-13.3-5.3-13.3-5.3s5.7-2.3,10.7-2.3
		c-6.3-1.7-14.3,0-18,3.7c-4,3.7-3.3,16.7-5,25c-1.7,8.7-7.3,13-16,21c-4.7,4.3-8,5.7-10.7,5.7c-5.7-1-12.3-2.7-17-4.3
		c-3.3-4.3-8.3-18.7-9.7-24.7c1-3.3,5-10.3,7-14.3c4-7.7,6.3-12,7-16c1.3-5.7,5.7-40.7,7.3-55.3c4.3,5.7,10.3,15,9,21
		c9.7-13.7,2.7-27-0.7-32.3c-3-5.3-7-16-3.7-27.3c3.3-11.3,15.3-42.7,15.3-42.7s4,7,9.7,5.7c5.7-1.3,51.3-70,51.3-70
		s12.3,27-0.7,46.7c-13.3,19.7-26.3,23.3-26.3,23.3s18.3,3.3,35.3-9c7,16.3,13.7,33.3,14,35.7c-1,2.3-14.3,34.3-15.7,36.3
		c-0.7,0.7-5.3,2-8.7,2.7c-5.7,1.7-9,2.7-10.3,3.7c-2.3,2-13,31.3-18,45.7c-6,1.7-12,5-16.3,11.7c2.3-1.7,9.7-2.7,15-3.3
		c4.7-0.3,19,7.3,22.7,21.7c0,0.3,0,0.3,0,0.7C229.6,318.1,227.9,323.1,225.2,327.1z M193.9,331.1c3-4.3,2.7-11.7,3-14
		c0.3-2.3,1-6.7,3.7-7.3s9,0.3,9,5c0,4.3-4.7,5.3-8,8.3C199.2,325.4,194.6,330.4,193.9,331.1z M326.9,267.4
		c3.3-17,3.7-31.7,2.7-43.7c13,17.3,21,38.3,23.3,60c0.3,2.7,3,5.3,5.7,8c2.3,2,5,4.7,5,6.3c0,7.7-0.7,15.3-2,23
		c-0.3,1-3.3,2.7-5.7,4c-3.3,1.7-6.3,3.3-7,6c-7.3,25.7-23,48.3-44,64.3C335.9,363.1,350.9,309.7,326.9,267.4z M305.9,398.4
		c21.7-16.7,38.3-40,45.7-66.3c0.3-1,3.3-2.7,5.3-4c3.3-1.7,6.7-3.7,7.3-6.3c1.3-7.7,2-15.7,2-23.7c0-3-3-6-6-9
		c-1.7-2-4.3-4.3-4.3-6c-2.7-24.3-12.3-47.3-27.3-66.3c-6.7-40-33.3-52.3-34-52.7c0.7,1,18,26,6,55.3c-12.3,29.7-44,25-46.7,25.3
		c-2.7,0-13,13.3-26,38c-1.7-0.7-8.7-2.3-16.7-1c6-16.7,15-40.3,16.7-42.3c0.7-0.7,5.7-2,9-3c6.3-1.7,9.3-2.7,10.3-4
		c0.7-1,4-8.7,7.3-16.7c3,0,10.7-0.7,11.3-1c0.7-0.7,7-17,7-19c0-1.7-13-34-18-46.3c2.3-2.7,4.7-6,7-9.7
		c68.3,7.3,121.7,65.3,121.7,135.7C383.6,329.4,351.9,376.4,305.9,398.4z"/>
	<path class="st3" d="M217.2,218.4c6.3-7.3,3-21-8.7-23.3c3-7,7.3-21,7.3-21s-34,53.3-37,54.3c-3,1-6-10.7-6-10.7
		c-6.3,24.3,10.7,27.7,12.7,20C194.9,235.4,210.9,225.4,217.2,218.4z"/>
	<path class="st4" d="M188.2,231.4l17.3-29.7c0,0,10,5,5,13C204.2,224.1,188.2,231.4,188.2,231.4z"/>
	<path class="st5" d="M402.6,368.7c-5,6.7-10.7,13.7-17.3,20.3c43-82.7,2-158.4,0.3-161.4c3,3,6,6.3,8.7,9.3
		C427.3,273.7,431.3,328.7,402.6,368.7z"/>
	<path class="st5" d="M442.6,262.4c-15-40.3-36.3-74.7-83.3-105.7c-45.3-30-94-27.7-96.7-27.3c-0.3,0-0.7,0-0.7,0
		c1.7-0.7,3.3-1,5-1.3c10.3-3.3,23.7-6,37-7.7c35.3-5,71,7,95.3,32.7c0.3,0.3,0.3,0.3,0.7,0.7C427.6,183,441.9,219.7,442.6,262.4z"
		/>
	<path class="st5" d="M348.6,97.4c-49.7-9.3-81.7-4.7-104.7,4c-0.7-2.7-3-8-5-12.3c-7,8.3-14.3,18.3-19,24.7c-12.7,8.7-18,17-18,17
		c7.3-25,28.7-43.7,54.7-48.3c7.3-1.3,15.3-2,24-2C303.6,80.7,326.6,86.4,348.6,97.4z"/>
	<path class="st5" d="M164.9,161.4c-39-1.3-26-46.7-25.3-49.3C139.5,112.4,142.2,147.7,164.9,161.4z"/>
	<path class="st5" d="M203.2,79.7c-30,18-24,61-24,61C150.5,97,200.9,80.7,203.2,79.7z"/>
	<path class="st1" d="M153.9,173.4c2,1.7,4,4.7,1.7,9c-1.3,2.3-3.3,2-6.3,0.7c-4-2-28-16-49.7-30.3c24.7,8.7,49.7,18,53.7,20
		C153.2,172.7,153.6,173,153.9,173.4z"/>
</g>
</svg>
