<?xml version="1.0" encoding="utf-8"?>
<!-- Generator: Adobe Illustrator 22.0.0, SVG Export Plug-In . SVG Version: 6.00 Build 0)  -->
<svg version="1.1" id="图层_1" xmlns="http://www.w3.org/2000/svg" xmlns:xlink="http://www.w3.org/1999/xlink" x="0px" y="0px"
	 viewBox="0 0 96 96" style="enable-background:new 0 0 96 96;" xml:space="preserve">
<style type="text/css">
	.st0{fill:#2BEC93;}
	.st1{clip-path:url(#SVGID_2_);}
	.st2{fill:#20A3FF;}
	.st3{fill:#E6CB8D;stroke:#7F1351;stroke-width:0.7;stroke-miterlimit:10;}
	.st4{fill:#CFB989;}
	.st5{fill:#CFB989;stroke:#7F1351;stroke-width:0.7;stroke-miterlimit:10;}
	.st6{fill:#A7E285;}
	.st7{fill:#69B043;}
	.st8{fill:#EBFEE1;stroke:#7F1351;stroke-width:0.7;stroke-miterlimit:10;}
	.st9{fill:#FFFFFF;}
	.st10{fill:#C8F0B1;}
	.st11{fill:#8DCD6A;stroke:#7F1351;stroke-width:0.7;stroke-miterlimit:10;}
	.st12{fill:#FBC66F;stroke:#7F1351;stroke-width:0.7;stroke-miterlimit:10;}
	.st13{fill:#70B648;}
	.st14{fill:#FEFFFF;stroke:#7F1351;stroke-width:0.7;stroke-miterlimit:10;}
	.st15{fill:#A6E183;stroke:#7F1351;stroke-width:0.7;stroke-miterlimit:10;}
	.st16{fill:#7F1351;}
	.st17{fill:#67AE41;}
	.st18{fill:#AAE588;stroke:#7F1351;stroke-width:0.7;stroke-miterlimit:10;}
	.st19{fill:#ABE589;}
	.st20{fill:#85C85B;}
	.st21{fill:#CEEFBA;}
	.st22{fill:#72B749;}
	.st23{fill:#7E1350;}
	.st24{fill:#78BD50;}
	.st25{fill:#54A522;}
	.st26{fill:#FFEDA5;stroke:#7F1351;stroke-width:0.7;stroke-miterlimit:10;}
	.st27{fill:#58ADD1;}
	.st28{opacity:0.42;fill:#FFFFFF;enable-background:new    ;}
	.st29{opacity:0.5;fill:#AFA57B;enable-background:new    ;}
</style>
<path class="st0" d="M48,96c26.5,0,48-21.5,48-48S74.5,0,48,0S0,21.5,0,48S21.5,96,48,96z"/>
<g>
	<defs>
		<path id="SVGID_1_" d="M48,96c26.5,0,48-21.5,48-48S74.5,0,48,0S0,21.5,0,48S21.5,96,48,96z"/>
	</defs>
	<clipPath id="SVGID_2_">
		<use xlink:href="#SVGID_1_"  style="overflow:visible;"/>
	</clipPath>
	<g class="st1">
		<ellipse class="st2" cx="46.8" cy="111" rx="38.1" ry="9.5"/>
		<g>
			<polygon class="st3" points="5.7,66.7 11.8,65.9 17.1,61.3 26.5,68.4 18.4,80.1 			"/>
			<polygon class="st4" points="15.6,63.4 19.3,70 18.3,79.4 25.9,68.6 17.2,61.9 			"/>
			<path class="st5" d="M85.4,63.7c0,0-0.4,1.8-1.4,3.2l4.3-2.3v-0.4l-2.8-0.9L85.4,63.7z"/>
		</g>
		<g>
			<path class="st6" d="M19.4,85.4c0,0-1.3,27.7,32.4,22.8c0,0,34.9-11.5,23-51.7C74.9,56.4,24.5,63.9,19.4,85.4z"/>
			<path class="st7" d="M45.7,90.1c0,0,5-0.8,5.5-9.4c0,0-0.5-3.1-3-3.6c0,0,0.5-2.6-1.6-3.7c0,0,7.6,0.4,12.8-2.4
				c0,0,7.1-3.5,6.8-6.7v-0.7c0,0-5.8,4.2-9.1,5.6c0,0-7.1,3.1-14,3.9L45.7,90.1z"/>
			<path class="st8" d="M27.8,70.5c0,0-1.8-0.6-3.5,2c0,0,6.8,9.7,21.7,4.9c0,0,1.2-2.7-3-4.3C43,73.1,36.1,73.8,27.8,70.5z"/>
			<path class="st9" d="M28.3,72.9c0,0,0.8,0,1.3,0.4l1.1,0.6c0,0,0.5,0.8-0.6,1L28,74.1C27.9,74.1,27.3,73.3,28.3,72.9z"/>
			<path class="st10" d="M39.4,73.6c0,0,3.8,1.5-1.3,4.8c0,0,4-0.1,7.5-1.3c0,0,0.7-2.3-2.7-3.5L39.4,73.6L39.4,73.6z"/>
			<path class="st8" d="M23.8,73c0,0-3.9,1.5-3.6,5.8c0,0,13.7,10,28.3,3.1c0,0,0.4-3.1-2.7-4.2c0,0-4.5,1.8-11.5,0.8
				C34.3,78.5,29.3,78.3,23.8,73z"/>
			<path class="st9" d="M25.4,76.9c0,0,0.8,0,1.3,0.4l1.1,0.6c0,0,0.5,0.8-0.6,1l-2.1-0.9C25.1,78.1,24.5,77.4,25.4,76.9z"/>
			<path class="st10" d="M40.5,79.2c0,0,3.4,2.2-0.2,4.6c0,0,4.7-0.5,7.9-2.2c0,0,0.2-2.4-2.2-3.4L40.5,79.2z"/>
			<path class="st8" d="M48.6,82.6c0,0,0.1,6.4-4.7,8.4c0,0-10.7,4.4-23.8-5.4c0,0-2.1-2.4,0.2-6.8c0,0,7.2,4.8,13.6,5.2
				C40.3,84.4,42.8,84.5,48.6,82.6z"/>
			<path class="st10" d="M36.7,84.6c0,0,2.1,5.8-9.9,4.5c0,0,9.2,4.6,17.4,1.2c0,0,3.3-1.3,3.9-7.1C48.1,83.2,43.3,85.1,36.7,84.6z"
				/>
		</g>
		<g>
			<path class="st11" d="M17.7,43c0,0,3.7-3.9,6.7-1.2c3.1,2.7,7.8,25.8,7.8,25.8s-2.3,4-7,4.2c0,0-8.4-6.1-9.7-14.4
				C15.5,57.3,13.7,48.1,17.7,43z"/>
			<path class="st12" d="M15.9,47.3c0,0,2.1,0,2.7,1.8c0,0,0.1,0.5-0.6,0.6c0,0-1.8,0.2-2.5-0.2C15.5,49.4,15.8,47.8,15.9,47.3z"/>
			<path class="st12" d="M15.4,53.7c0,0,1.3,0,1.8,0.2c0.5,0.2,0.7,0.2,1,0.7c0,0,0.1,0.5-0.2,0.7c0,0-1.1,0.8-2.4,0.6L15.4,53.7z"
				/>
			<path class="st13" d="M20.4,44c0,0-2.2,9,2.1,17.4c0,0-1.1,3.3,0,7.5c0,0,1.7,1.6,2.7,2.4c0.6,0,4.2-0.2,6.3-3.8
				c0,0-3.4-17.9-7.2-25.1C24.4,42.4,21.3,40.7,20.4,44z"/>
			<path class="st14" d="M21.5,41.3c0-0.3,0.5-3.7,2.8-4.1c0,0,1.3-0.4,1.2,2.7c-0.1,3-2.2,2.5-2.2,2.5S21.7,42.2,21.5,41.3z"/>
			<path class="st14" d="M17.6,42.8c0-0.3,0.6-4.4,3.3-5c0,0,1.6-0.5,1.4,3.2c-0.1,3.5-2.7,2.9-2.7,2.9S17.7,43.8,17.6,42.8z"/>
		</g>
		<g>
			<path class="st15" d="M25.2,61.2c0,0-2.1,1,0,6.6c0,0,3.9,6,19.3,4.5c0,0,10.7-0.9,20.6-8.3c0,0,9-6.5,9.8-7.6
				c0.8-1.1,0.7-5.1,2-10.8C76.9,45.6,47.1,73.8,25.2,61.2z"/>
			<path class="st7" d="M25.2,61.5c0,0,2.9,2.7,3.1,2.7c0,0,0.7,2.8,0.7,3.3c0,0.5,15.2,7.9,33.9-2.3c0,0-7.4,5.2-17,6.7
				c0,0-14.6,2.4-20.5-4.3C25.4,67.6,23.6,63,25.2,61.5z"/>
			<g>
				<path class="st16" d="M65.3,66.9c-1.9,0.5-3.6,1-5.6,1.1c-0.3,0-0.4-0.2-0.4-0.4c0,0,0,0,0,0c0-0.2,0.1-0.4,0.4-0.4
					c1.9-0.1,3.6-0.6,5.4-1c0.2-0.1,0.4,0.1,0.5,0.3c0,0,0,0,0,0C65.6,66.6,65.5,66.8,65.3,66.9z"/>
			</g>
			<g>
				<path class="st16" d="M53.5,72.5c-3.3,1-5.8,1.1-9.2,0.7c-0.5-0.1-0.4-0.2-0.4-0.4c-0.1,0,0,0,0,0c0-0.2,0.1-0.4,0.5-0.3
					c3.2,0.4,5.7,0.3,8.8-0.6c0.4-0.1,0.5,0,0.6,0.3c0.1,0,0,0,0,0C53.9,72.3,53.9,72.4,53.5,72.5z"/>
			</g>
		</g>
		<g>
			<path class="st5" d="M30,26.3l5.3-4.4l1.5,0.8L34,26.2l-3.4,1.1C30.6,27.3,26.5,29.8,30,26.3z"/>
			<path class="st17" d="M47.7,62.9l3.4-3.8c0,0,2.2-1.1,4-1.1c0,0,3.8,0.2,5.5-2c0,0,0.7-1.5,1.6-1.7c0,0,1.1-0.1,1.9,0.5l1.7-0.8
				c0,0,1-0.5,1.5,0.9c0,0,1.1,1.7-2.9,3.1c0,0-3.7,3.1-6,3.5c0,0-0.9,0.2-3.5,0c0,0-2.5,1.2-2.7,1.3c-0.2,0.1-1.1-0.1-1.1-0.1
				l-4.6,1.6L47.7,62.9z"/>
			<path class="st14" d="M60.6,57.4c0,0,0.4,2.7,1.9,2.7s1.4-3.8,1.4-3.8S61.4,55.3,60.6,57.4z"/>
			<path class="st18" d="M77.9,47.1c0,0,3.2-9,0.4-17.2c0,0,1.3-15.5-19.2-17.7s-22.8,9.8-22.8,9.8s-1.5,0.3-2.1,3
				c0,0-0.4,4.6,1,6.3c0,0-2.3,2.6-4.7,4.1s-10.3,5.8-8.5,19.1c0,0,0.6,8.9,10.3,10.8c9.7,1.9,13-0.5,20-5.1c0,0,1.8-0.9,7.5-0.8
				c0,0,1.5-0.5,2.7-4.3c0,0,1.7,0.5,4.6-0.3"/>
			<g>
				<path class="st19" d="M37.7,26.7C37.7,26.7,37.7,26.7,37.7,26.7c-0.4-0.8-3.2-5.6-6.4,2.2c0,0-1.1,3.3-0.3,6.2
					c0,0,2.2-1.3,4.1-3.4C36.4,30.3,37.5,28.6,37.7,26.7z"/>
				<path class="st20" d="M31,31.7c0,0-0.1,2.1,0.2,2.9c0,0,2.3-1.5,3.3-2.7c0,0-0.1-0.8-1.8-1.3C32.7,30.7,31.5,30.9,31,31.7z"/>
			</g>
			<g>
				<g>
					<path class="st16" d="M71.1,35.8C71.1,35.8,71.1,35.8,71.1,35.8c-0.1-0.1-0.2-0.3,0.1-0.5c0.7-0.4,1-0.8,0.9-1.7
						c0-0.3,0.2-0.3,0.3-0.3c0,0,0,0,0,0c0.2,0,0.3,0,0.3,0.3c0,1-0.3,1.6-1.1,2.1C71.3,36,71.2,35.9,71.1,35.8z"/>
				</g>
				<g>
					<path class="st20" d="M75.3,37.2c-0.9-1-1.6-0.9-2.3,0.3c-0.1,0.2-0.3,0.2-0.4,0c0,0,0,0,0,0c-0.1-0.1-0.2-0.2,0-0.4
						c0.9-1.4,2-1.6,3.2-0.4c0.2,0.2,0.1,0.3,0,0.4c0,0,0,0,0,0C75.7,37.3,75.5,37.4,75.3,37.2z"/>
				</g>
				<g>
					<path class="st16" d="M75,36.7c-0.9-1-1.6-0.9-2.3,0.3c-0.1,0.2-0.3,0.2-0.4,0c0,0,0,0,0,0c-0.1-0.1-0.2-0.2,0-0.4
						c0.9-1.4,2-1.6,3.2-0.4c0.2,0.2,0.1,0.3,0,0.4c0,0,0,0,0,0C75.3,36.8,75.2,36.9,75,36.7z"/>
				</g>
				<g>
					<path class="st20" d="M73.8,32.5C73.8,32.5,73.8,32.5,73.8,32.5c0.2-0.1,0.4-0.1,0.4,0.2c0.2,0.8,0.5,1.2,1.3,1.4
						c0.3,0.1,0.3,0.2,0.2,0.4c0,0,0,0,0,0c-0.1,0.2-0.1,0.3-0.4,0.2c-0.9-0.3-1.4-0.7-1.7-1.7C73.5,32.6,73.6,32.6,73.8,32.5z"/>
				</g>
				<g>
					<path class="st16" d="M73.4,33C73.4,32.9,73.4,33,73.4,33c0.2-0.1,0.4-0.1,0.4,0.2c0.2,0.8,0.5,1.2,1.3,1.4
						c0.3,0.1,0.3,0.2,0.2,0.4c0,0,0,0,0,0c-0.1,0.2-0.1,0.3-0.4,0.2c-0.9-0.3-1.4-0.7-1.7-1.7C73.2,33.1,73.3,33.1,73.4,33z"/>
				</g>
			</g>
			<g>
				<g>
					<path class="st16" d="M69.6,32.4c-6.1-3.3-14.3,0.6-14.4,7.7c0,0.3,0.2,0.4,0.4,0.4c0,0,0,0,0,0c0.2,0,0.4-0.1,0.5-0.4
						c0.2-6.4,7.5-10.2,13.1-7c0.2,0.1,0.4,0,0.5-0.2c0,0,0,0,0,0C69.8,32.8,69.8,32.5,69.6,32.4z"/>
				</g>
				<path class="st20" d="M66.6,43.2l-6-1.2c-0.6-0.1-1.1-0.8-0.9-1.4l0,0c0.1-0.6,0.8-1.1,1.4-0.9l6,1.2c0.6,0.1,1.1,0.8,0.9,1.4
					l0,0C67.9,42.9,67.3,43.4,66.6,43.2z"/>
				<path class="st20" d="M64.5,39.4l-2.7,2.3c-0.5,0.4-1.3,0.4-1.7-0.1l0,0c-0.4-0.5-0.4-1.3,0.1-1.7l2.7-2.3
					c0.5-0.4,1.3-0.4,1.7,0.1l0,0C65.1,38.3,65,39,64.5,39.4z"/>
				<g>
					<path class="st16" d="M68.6,36.3c-3.7,1.1-6.1,2.3-8.9,5.2c-0.3,0.3-0.5,0.2-0.7,0c0,0,0,0,0,0c-0.2-0.2-0.3-0.4,0-0.7
						c2.9-3,5.3-4.2,9.3-5.4c0.4-0.1,0.5,0.1,0.6,0.3c0,0,0,0,0,0C69,35.9,68.9,36.2,68.6,36.3z"/>
				</g>
				<g>
					<path class="st16" d="M68.4,40c-3.1-0.2-6,0.4-8.8,1.7c-0.3,0.1-0.5,0-0.6-0.3c0,0,0,0,0,0c-0.1-0.3,0-0.5,0.2-0.6
						c3-1.3,6.1-1.9,9.3-1.7c0.3,0,0.4,0.2,0.4,0.5c0,0,0,0,0,0C68.8,39.9,68.7,40.1,68.4,40z"/>
				</g>
				<g>
					<path class="st16" d="M65.9,43.9c-2.2-1.1-4.5-1.2-6.7-2.2c-0.2-0.1-0.3-0.3-0.2-0.6c0,0,0,0,0,0c0.1-0.2,0.3-0.4,0.6-0.3
						c2.3,1,4.6,1.1,6.8,2.2c0.2,0.1,0.3,0.4,0.1,0.6c0,0,0,0,0,0C66.4,43.9,66.1,44,65.9,43.9z"/>
				</g>
				<path class="st21" d="M66.1,33.3c0,0-4.1-0.1-5.1,0.6c-0.9,0.7-3.3,2.7-3.4,5.1c0,0,0.8,0.7,1.3-0.2C59,38.8,61,34.8,66.1,33.3z
					"/>
			</g>
			<path class="st21" d="M37.7,39.2c0,0-5.5,0.3-8.4,6.8c0,0-1.3,4,2.1,5c0,0,1.6,0.4,2.6-1.7c0,0,4-6.9,5.2-7.9
				C39.2,41.5,39.9,39.5,37.7,39.2z"/>
			<g>
				<g>
					<ellipse transform="matrix(0.9871 -0.1602 0.1602 0.9871 -9.0261 5.3992)" class="st22" cx="29" cy="58.7" rx="1.5" ry="2.4"/>
					<g>
						<path class="st23" d="M27.9,59.9C27.9,59.9,27.9,59.9,27.9,59.9c0.1-0.1,0.2-0.2,0.4,0c2.6,2.9,2.4-4.8,0.1-3
							c-0.2,0.1-0.3,0.1-0.4-0.1c0,0,0,0,0,0c-0.1-0.2-0.2-0.2,0.1-0.4c3.4-2.5,3.8,7.5-0.2,4C27.7,60.1,27.8,60.1,27.9,59.9z"/>
					</g>
					<path class="st23" d="M27.9,56.9c0,0-0.3,0.2-0.4,1.5c0,0,0.4,0.1,0.4-0.7C27.8,57.6,27.8,57.4,27.9,56.9z"/>
				</g>
				<g>
					
						<ellipse transform="matrix(0.5979 -0.8016 0.8016 0.5979 -33.2586 55.8554)" class="st22" cx="39" cy="61.1" rx="2.4" ry="1.5"/>
					<g>
						<path class="st23" d="M39.4,62.7C39.4,62.6,39.4,62.7,39.4,62.7c0-0.2-0.1-0.3-0.4-0.2c-3.7,1.4,0.1-5.4,1.3-2.7
							c0.1,0.2,0.3,0.2,0.4,0.1c0,0,0,0,0,0c0.1-0.1,0.3-0.2,0.1-0.4C39,55.6,34,64.4,39.1,63C39.5,62.9,39.4,62.8,39.4,62.7z"/>
					</g>
					<path class="st23" d="M40.9,60c0,0,0.2,0.3-0.3,1.5c0,0-0.4-0.1,0-0.8C40.6,60.7,40.7,60.5,40.9,60z"/>
					<path class="st23" d="M38.6,59.5c0,0,0.8,0.3,0.7,1.3c0,0-0.1,1.2-2,0.9C37.4,61.7,37.6,60.5,38.6,59.5z"/>
				</g>
				<path class="st23" d="M29.8,57.1c0,0-0.9,0.2-0.9,1.4c0,0,0,1.7,1.2,1.4C30.1,59.9,30.7,58.3,29.8,57.1z"/>
			</g>
			<path class="st14" d="M51.8,61c0,0,0.5,2.7,2.2,2.7c1.8,0,1.8-4.2,1.8-4.2S52.8,58.8,51.8,61z"/>
			<g>
				<path class="st16" d="M65.5,57c-1.6,0.2-2.8-0.8-3.7-2c-0.1-0.2-0.1-0.3,0.1-0.5c0,0,0,0,0,0c0.1-0.1,0.4-0.1,0.5,0
					c0.8,1.1,1.7,2,3.1,1.8c0.2,0,0.3,0.2,0.4,0.3c0,0,0,0,0,0C65.8,56.8,65.7,56.9,65.5,57z"/>
			</g>
			<path class="st5" d="M35.8,50.9"/>
			<path class="st24" d="M23.2,44.8c0,0-1.3,7.4,2.1,16.1c0,0-2.5-2.4-2.8-7.1C22.4,53.8,21.8,49.3,23.2,44.8z"/>
			<g>
				<g>
					<path class="st16" d="M35.1,31.4C35.1,31.4,35.1,31.4,35.1,31.4c-0.2,0-0.5-0.2-0.5-0.4c-0.1-0.8-0.2-1.7-0.6-2.4
						c-0.1-0.2,0-0.5,0.2-0.6c0,0,0,0,0,0c0.2-0.1,0.4-0.1,0.6,0.2c0.4,0.8,0.6,1.8,0.6,2.7C35.5,31.2,35.4,31.4,35.1,31.4z"/>
				</g>
				<g>
					<path class="st16" d="M35,31.5C35,31.5,35,31.5,35,31.5c-0.2,0.2-0.4,0.2-0.6,0.1c-0.6-0.5-1.3-1-2.1-1.3
						c-0.3-0.1-0.3-0.3-0.3-0.6c0,0,0,0,0,0c0.1-0.2,0.3-0.4,0.6-0.3c0.9,0.3,1.7,0.8,2.4,1.4C35.1,31,35.1,31.3,35,31.5z"/>
				</g>
				<g>
					<path class="st16" d="M35.4,31.5C35.4,31.5,35.4,31.5,35.4,31.5c0,0.2-0.2,0.4-0.5,0.4c-0.8,0-1.7,0-2.4,0.3
						c-0.2,0.1-0.5,0-0.5-0.3c0,0,0,0,0,0c-0.1-0.2,0-0.4,0.3-0.6c0.9-0.4,1.8-0.4,2.7-0.4C35.3,31.1,35.4,31.3,35.4,31.5z"/>
				</g>
			</g>
			<path class="st16" d="M37.6,26.9c0,0,0.1,0.3,0.5,0.2c0,0,0.3-0.2,0.3-0.4c0,0-0.7-2.1-2.5-2.3c0,0-3.1-0.5-4.6,3.8
				c0,0-1.7,4.2-0.7,7c0,0,0.3,0.6,0.8,0.5c0,0,3.1-2.3,4.3-3.9c0,0,0.2-0.2,0.5-0.4c0,0,0.2-0.7-0.3-0.8c0,0-1,0.4-1.7,2.1
				c0,0-1.8,1.6-2.5,1.9c0,0-0.4,0.3-0.4-0.6c0,0-0.1-2.7,1-5.5c0,0,1.1-3.1,3.6-3.3C35.6,25.1,36.9,25,37.6,26.9z"/>
			<g>
				
					<ellipse transform="matrix(0.9007 -0.4344 0.4344 0.9007 -13.8326 33.3828)" class="st12" cx="66.1" cy="47" rx="0.9" ry="1.5"/>
				
					<ellipse transform="matrix(0.8394 -0.5435 0.5435 0.8394 -13.5547 44.7401)" class="st12" cx="68.9" cy="45.3" rx="0.9" ry="1.4"/>
				<ellipse transform="matrix(0.5 -0.866 0.866 0.5 -1.7278 83.1502)" class="st12" cx="71.1" cy="43.1" rx="0.9" ry="1.4"/>
			</g>
		</g>
		<g>
			<path class="st15" d="M67.9,73.9c0,0-4-9.5,3.9-23.1s13-1.2,13-1.2s6.6,9.9-4.9,24.2"/>
			<path class="st14" d="M79.1,48.5c-0.1-0.4-0.1-4.7,2.7-5.8c0,0,1.6-0.8,2,3.2c0.4,3.8-2.4,3.5-2.4,3.5S79.4,49.6,79.1,48.5z"/>
			<path class="st14" d="M76.3,48.8c-0.1-0.4-0.1-4.7,2.7-5.8c0,0,1.6-0.8,2,3.2c0.4,3.8-2.4,3.5-2.4,3.5S76.7,49.9,76.3,48.8z"/>
			<path class="st14" d="M72.4,49.7c-0.1-0.3-0.1-4.5,2.6-5.5c0,0,1.5-0.8,1.9,3.1c0.4,3.6-2.3,3.4-2.3,3.4S72.8,50.7,72.4,49.7z"/>
			<path class="st21" d="M71.8,51.8c0,0-0.7,3.1-2.5,9.1c0,0-1.7,7.2-1.9,7.9c0,0-0.3-5,1.3-9.7C68.6,59,70.3,53.9,71.8,51.8z"/>
			
				<ellipse transform="matrix(0.9733 -0.2296 0.2296 0.9733 -11.0202 19.8556)" class="st12" cx="79.8" cy="57.3" rx="5.8" ry="1.4"/>
			
				<ellipse transform="matrix(0.9733 -0.2296 0.2296 0.9733 -12.2355 19.8787)" class="st12" cx="79.3" cy="62.5" rx="5.3" ry="1.4"/>
			<path class="st25" d="M75.5,67.3c0,0-0.6,0.6-0.6,1.5c0,0,0,0.8,0.6,0.5c0,0,1.4-0.9,1.7-1.7c0,0,0.3-0.4-0.1-0.8
				c0,0-0.6-0.2-0.7-0.2C76.4,66.6,75.8,66.9,75.5,67.3z"/>
			<path class="st25" d="M75.9,70.1c0,0,0-0.3,0.6-0.7c0,0,0.6-0.5,1-0.2c0,0,0.2,0.2-0.5,0.9C77,70.1,76.1,70.6,75.9,70.1z"/>
			<path class="st25" d="M77.7,68.1v0.4c0,0,0.1,0.3,0.5,0.2c0,0,0.5-0.1,0-0.5C78.2,68.2,77.9,67.7,77.7,68.1z"/>
			<g>
				<path class="st16" d="M64.9,75.1c0.2-1.4,0.8-2.5,1.7-3.6c0.1-0.1,0.4-0.2,0.5,0c0,0,0,0,0,0c0.2,0.1,0.2,0.4,0.1,0.6
					c-0.8,1-1.4,1.9-1.6,3.2c0,0.2-0.2,0.3-0.5,0.2c0,0,0,0,0,0C65,75.5,64.9,75.3,64.9,75.1z"/>
			</g>
		</g>
		<g>
			<path class="st26" d="M5.3,67.5l13.1,12.9l8.6,2.6l6.8,8.4l7.6-2l2.1-2.5l11.9-4.3l9.5,3.7l7.6-11c0,0,12-8.9,15.9-10.5
				c0,0,3.8,34.9-23.2,48.5c0,0-23.4,13-43.2-6C22,107.5,6.6,95.6,5.3,67.5z"/>
			<g>
				<polygon class="st3" points="5.9,68 5.7,67.2 17.7,72.6 21,77.2 19.8,80 19.2,80.5 18.2,80.1 7.1,69.2 				"/>
				<polygon class="st3" points="21,76.9 19.4,80.6 26.8,82.9 26.6,80.5 				"/>
				<polygon class="st5" points="26.6,80.5 27.4,80.9 34.6,90.5 33.2,90.7 26.9,82.8 				"/>
				<polygon class="st3" points="43.5,86.7 54.6,79.8 54.8,82.8 43.5,87 				"/>
				<polygon class="st5" points="66,84.4 64.8,86.4 54.9,82.5 54.5,79.9 55,79.4 				"/>
			</g>
			<g>
				<path class="st27" d="M5.8,68.6l8,7.9c0,0-2.7,3.6-7,0.8C6.8,77.3,6,72.7,5.8,68.6z"/>
				<path class="st27" d="M13.2,95.7c0,0,3.3-6.4,9.7-6.1c0,0,7-0.5,11.1,11.5c0,0,2,6.7,0.4,13.9C34.3,115,20.5,109.8,13.2,95.7z"
					/>
				<path class="st27" d="M39.4,90.4l2.2-0.6l1.9-2.3l11.7-4.4l3.7,1.4c0,0-0.6,9.6-6.1,14.2C52.8,98.8,44.4,105.9,39.4,90.4z"/>
				<path class="st27" d="M84.5,90.9c0,0-7.9-3.2-11.7,5.5c0,0-2.3,4.8-0.8,12.2C71.9,108.6,80,102.5,84.5,90.9z"/>
				<path class="st27" d="M62.2,114.3c0,0-2.8-3.5-6.4-2.3c0,0-2.9,0.7-3.4,4.9C52.4,117,57.2,116.4,62.2,114.3z"/>
				<path class="st28" d="M5.9,68.7l5.1,5c0,0,1.4,16.5,10,32.4C21,106.1,7.7,95.5,5.9,68.7z"/>
			</g>
			<g>
				<g>
					<path class="st16" d="M33.2,96.5C33.2,96.5,33.2,96.5,33.2,96.5c-0.3,0-0.6-0.3-0.5-0.7c0.2-1.5,0.6-3.2,0.9-4.7
						c0.1-0.4,0.3-0.6,0.7-0.5c0,0,0,0,0,0c0.3,0,0.6,0.3,0.5,0.7c-0.2,1.5-0.7,3.2-0.9,4.7C33.8,96.4,33.6,96.5,33.2,96.5z"/>
				</g>
				<g>
					<path class="st16" d="M29.9,99.3C29.8,99.3,29.8,99.3,29.9,99.3c-0.3-0.2-0.2-0.6,0-0.8c0.7-0.9,1.6-1.4,2.5-2.2
						c0.2-0.2,0.6-0.2,0.8,0c0,0,0,0,0,0c0.2,0.2,0.2,0.6,0,0.8c-0.8,0.7-1.7,1.2-2.4,2.1C30.4,99.5,30.1,99.5,29.9,99.3z"/>
				</g>
				<g>
					<path class="st16" d="M67.6,102.2C67.6,102.2,67.6,102.2,67.6,102.2c0.2-0.3,0.6-0.3,0.8-0.1c1,0.7,1.5,1.5,2.3,2.3
						c0.2,0.2,0.2,0.6,0,0.8c0,0,0,0,0,0c-0.2,0.3-0.6,0.3-0.8,0.1c-0.8-0.8-1.4-1.6-2.3-2.3C67.5,102.8,67.4,102.4,67.6,102.2z"/>
				</g>
				<g>
					<path class="st16" d="M33.1,104.5C33.1,104.5,33.1,104.5,33.1,104.5c-0.4,0-0.6-0.2-0.6-0.6c0-1.7,0.4-3.6,1-5.2
						c0.2-0.4,0.4-0.6,0.7-0.4c0,0,0,0,0,0c0.4,0.1,0.5,0.3,0.4,0.8c-0.5,1.5-1,3.3-1,4.9C33.7,104.3,33.5,104.5,33.1,104.5z"/>
				</g>
				<g>
					<path class="st16" d="M33.7,100C33.7,100,33.7,100,33.7,100c-0.4-0.1-0.5-0.5-0.4-0.7c0.3-0.7,0.5-1.6-0.2-2.1
						c-0.2-0.1-0.2-0.5,0.1-0.7c0,0,0,0,0,0c0.3-0.2,0.6-0.2,0.8,0c0.9,0.9,0.9,2.1,0.4,3.2C34.3,100,34.1,100.1,33.7,100z"/>
				</g>
				<g>
					<path class="st16" d="M70.6,108C70.6,108,70.6,108,70.6,108c-0.3,0-0.5-0.1-0.5-0.5c-0.1-2.1,0.3-4.4,0.7-6.4
						c0.1-0.4,0.3-0.5,0.6-0.4c0,0,0,0,0,0c0.3,0.1,0.5,0.3,0.4,0.6c-0.4,2-0.8,4.2-0.7,6.2C71.1,107.8,70.9,108,70.6,108z"/>
				</g>
			</g>
		</g>
		<g>
			<path class="st20" d="M36.7,22.1c0,0-0.9,0.6-1.2,1.1c0,0,4.4,2.2,5,2.6c0.6,0.5,3.4,1.7,4.4,1c1.1-0.7,2.5-1,2.5-1
				s7.8,5.4,9.2,5.9c0,0,0.1,0.3,3.7-1.5c0,0,2.2-1.1,2.9-1.2c0,0,2.1,2,3.6,2.5c0,0,6.1-1.8,6.7-2.1c0,0,3.6,1.4,5.2,12.3
				c0,0,1.1-7.5-0.7-11.9c0,0-3.8-6.3-12.1-6.6S36.7,22.1,36.7,22.1z"/>
			<g>
				<path class="st3" d="M48.8,25.3l1.8-0.5l8.9,5.5l-1.6,0.8c0,0-0.3,0.1-0.9-0.3C56.4,30.5,48.8,25.3,48.8,25.3z"/>
				<path class="st3" d="M64.8,28.1l1-0.3l2.6,2.1l-1.1,0.5c0,0-0.3,0.1-0.5-0.1C66.5,30,64.8,28.1,64.8,28.1z"/>
				<path class="st5" d="M79,30.7c0,0,3.1,2.2,3.3,2.9c0,0,0.1,0.3-0.9,0.1c-0.8-0.2-1.7-0.4-1.7-0.4L79,30.7z"/>
				<g>
					<path class="st26" d="M29.1,26.8c0,0,4.7-19.8,30.6-18.5c0,0,13.4,0.7,21.1,13c0,0,4.1,7.1,1.6,12l-6.9-5.7l-7.1,2.2l-2.5-2.2
						l-6.3,2.6l-8.9-5.7L44,26.6l-8.2-5.1L29.1,26.8z"/>
					<path class="st27" d="M29.6,26c0,0,2-7.9,10.4-12.9c0,0,0.6,5.5-1.8,9.4l-2.3-1.3L29.6,26z"/>
					<path class="st27" d="M50,9.2c0,0,1.4,8.4,7.5,8.9c0,0,6.1,0.9,9.2-7.8C66.7,10.3,61.7,7.1,50,9.2z"/>
					<path class="st27" d="M54.3,26.3c0,0,2.3-2.5,5.6-2.2c0,0,3.2,0.1,5.3,3.2l-5.7,2.3L54.3,26.3z"/>
					<path class="st27" d="M81.6,24.1c0,0-2.6,2-3.7,4.9l4.3,3.5C82.2,32.6,83.7,29.2,81.6,24.1z"/>
					<path class="st28" d="M29.6,26c0,0,4.2-16.3,26.2-17.4C55.8,8.6,38.2,15.3,29.6,26z"/>
					<path class="st29" d="M70.8,12.2c0,0,6.5,3.5,10,10.2c1.4,3,2.5,6.9,1.3,10.2l-4.3-3.5C77.9,29.1,80.5,24.9,70.8,12.2z"/>
				</g>
			</g>
		</g>
	</g>
</g>
</svg>
