<?xml version="1.0" encoding="utf-8"?>
<!-- Generator: Adobe Illustrator 22.0.0, SVG Export Plug-In . SVG Version: 6.00 Build 0)  -->
<svg version="1.1" id="图层_1" xmlns="http://www.w3.org/2000/svg" xmlns:xlink="http://www.w3.org/1999/xlink" x="0px" y="0px"
	 viewBox="0 0 200 200" style="enable-background:new 0 0 200 200;" xml:space="preserve">
<style type="text/css">
	.st0{fill:#231F20;}
	.st1{fill:url(#SVGID_1_);}
	.st2{fill:url(#SVGID_2_);}
</style>
<path class="st0" d="M100,200c55.2,0,100-44.8,100-100S155.2,0,100,0S0,44.8,0,100S44.8,200,100,200z"/>
<linearGradient id="SVGID_1_" gradientUnits="userSpaceOnUse" x1="40.7471" y1="82.6653" x2="162.48" y2="82.6653" gradientTransform="matrix(1 0 0 -1 0 202)">
	<stop  offset="0" style="stop-color:#8077F2"/>
	<stop  offset="1" style="stop-color:#FFB29B"/>
</linearGradient>
<path class="st1" d="M134.6,95.6c-1.2-0.3-2.1,1-1.3,2c1.9,2.5,3,5.1,3,7.8c0,14.5-29.3,26.2-65.5,26.2c-10.4,0-20.2-1-28.9-2.7
	c-1.1-0.2-1.7,1.2-0.7,1.8c11.5,7.5,32.2,12.5,55.8,12.5c36.2,0,65.5-11.7,65.5-26.2C162.5,108.1,151.5,100.3,134.6,95.6z"/>
<linearGradient id="SVGID_2_" gradientUnits="userSpaceOnUse" x1="43.0518" y1="124.8702" x2="147.2105" y2="124.8702" gradientTransform="matrix(1 0 0 -1 0 202)">
	<stop  offset="0" style="stop-color:#8077F2"/>
	<stop  offset="1" style="stop-color:#FFB29B"/>
</linearGradient>
<path class="st2" d="M123.4,56.8c-1-0.3-1.8,0.9-1.1,1.7c1.7,2.1,2.6,4.4,2.6,6.7c0,12.4-25.1,22.4-56,22.4
	c-8.9,0-17.3-0.8-24.7-2.3c-0.9-0.2-1.4,1.1-0.6,1.6c9.9,6.4,27.6,10.7,47.7,10.7c31,0,56-10,56-22.4
	C147.2,67.5,137.8,60.8,123.4,56.8z"/>
</svg>
