<?xml version="1.0" encoding="utf-8"?>
<!-- Generator: Adobe Illustrator 22.0.0, SVG Export Plug-In . SVG Version: 6.00 Build 0)  -->
<svg version="1.1" id="图层_1" xmlns="http://www.w3.org/2000/svg" xmlns:xlink="http://www.w3.org/1999/xlink" x="0px" y="0px"
	 viewBox="0 0 500 500" style="enable-background:new 0 0 500 500;" xml:space="preserve">
<style type="text/css">
	.st0{fill:#FFFFFF;}
	.st1{fill:#2891F9;}
	.st2{fill:#2BBDF7;}
	.st3{fill:#2B6DEF;}
</style>
<circle class="st0" cx="250.2" cy="250.8" r="249.8"/>
<g>
	<polygon class="st1" points="85.3,344.9 85.3,140.4 258.5,239.1 258.5,304.3 143.4,238.4 142.8,377.3 	"/>
	<polygon class="st2" points="200.2,345.2 200.2,270.9 143.4,238.4 142.8,377.3 	"/>
	<polygon class="st2" points="258.5,239.1 315.1,206 315.1,271.2 258.5,304.3 	"/>
	<polygon class="st3" points="142.8,106.3 85.3,140.1 258.5,239.1 315.1,206 	"/>
	<polygon class="st1" points="316.8,140.4 316.8,346.2 373.6,377.3 373.6,172.7 	"/>
	<polygon class="st3" points="373.6,106.3 316.8,140.4 373.6,172.7 430.4,140.4 	"/>
	<polygon class="st2" points="373.6,379 430.4,345.2 430.4,140.4 373.6,172.7 	"/>
</g>
</svg>
