<?xml version="1.0" encoding="utf-8"?>
<!-- Generator: Adobe Illustrator 22.0.0, SVG Export Plug-In . SVG Version: 6.00 Build 0)  -->
<svg version="1.1" id="图层_1" xmlns="http://www.w3.org/2000/svg" xmlns:xlink="http://www.w3.org/1999/xlink" x="0px" y="0px"
	 viewBox="0 0 500 500" style="enable-background:new 0 0 500 500;" xml:space="preserve">
<style type="text/css">
	.st0{fill:#131735;}
	.st1{fill:#FFFFFF;stroke:#000000;stroke-miterlimit:10;}
	.st2{fill:#4BA8DB;}
</style>
<circle class="st0" cx="250" cy="250" r="250"/>
<path class="st1" d="M139,383.1c0,0-33.7,3.6-47-35V167.8c0,0,15.7-89.6,110.9-64.3L322.2,208c0,0,49.9,49.1-12.1,110.9
	c0,0-75.5,65.1-133.4-37.8c0,0-22-55.5,32.1-90.3l34.6,30l-17.6,20.3c0,0-14.5,43.2,24.1,46.4c0,0,43.4,6.4,40.1-30.5
	c0,0,4.1-13.7-4.9-20.9l-102-87.6c0,0-30.5-11.3-43.4,25.3L139,383.1z"/>
<path class="st2" d="M268.3,139.7l35.4,28.2l17.6-14.6c0,0,35.4-24.2,50.7,20.4v206.2c0,0,35.4,6.4,47.4-32.9V167.8
	c0,0,5.7-39.5-54.6-65.1C364.7,102.7,309.3,85.9,268.3,139.7z"/>
</svg>
