<?xml version="1.0" encoding="utf-8"?>
<!-- Generator: Adobe Illustrator 22.0.0, SVG Export Plug-In . SVG Version: 6.00 Build 0)  -->
<svg version="1.1" id="图层_1" xmlns="http://www.w3.org/2000/svg" xmlns:xlink="http://www.w3.org/1999/xlink" x="0px" y="0px"
	 viewBox="0 0 1088 1154" style="enable-background:new 0 0 1088 1154;" xml:space="preserve">
<style type="text/css">
	.st0{fill:#1CAF91;stroke:#1F8674;stroke-width:10;stroke-linejoin:round;}
	.st1{fill:#323333;}
	.st2{fill:#D97F77;stroke:#1F8674;stroke-width:10;stroke-linejoin:round;}
	.st3{fill:#FBF2E9;stroke:#E8B37C;stroke-width:10;stroke-linejoin:round;}
	.st4{fill:#F6D0AA;}
	.st5{fill:none;stroke:#F6D0AA;stroke-width:10;stroke-linejoin:round;}
</style>
<path id="形状_1" class="st0" d="M424.2,304c0,0-125,29.1-120.4,118c0,0,10.9,95.4,225,75.4c0,0-1.5,239.3,4.9,248.1
	C540.1,754.4,732,720,732,720S712.5,202,595.7,156.8C595.7,156.8,463,97.5,424.2,304z"/>
<circle id="椭圆_1" class="st1" cx="458.3" cy="323.4" r="19.5"/>
<circle id="椭圆_1_拷贝" class="st1" cx="519.1" cy="341.7" r="19.5"/>
<path id="形状_9" class="st2" d="M692.9,358.9c0,0,58.5,19.8,60.9,25.2c0,0,8.1,8-2,20.7l-47.3,30.3
	C704.5,435.2,698.9,388.4,692.9,358.9z"/>
<path id="形状_9_拷贝" class="st2" d="M715.7,476.5c0,0,57.3,22.9,59.5,28.5c0,0,7.7,8.4-3.1,20.5l-48.9,27.7
	C723.2,553.2,720.1,506.2,715.7,476.5z"/>
<path id="形状_8" class="st3" d="M230.8,527.8c0,0,17.7,13.5,97.3-28c0,0,0,25,12.2,43.8c0,0,37.6-32.8,47.4-34.1
	c0,0,17.2,42.5,35.3,38.9c0,0,16.3,4.5,31.6-35.3c0,0,18.5-17.3,62,46.2c0,0,38.6,66.1,74.2,10.9l23.1-43.8c0,0,10.9-10.9,51.1,56
	c0,0,13.3,3,20.7-74.2c0,0,24,5.4,70.6,46.2c0,0,27.6,24.1,51.1,32.8c0,0,15.8-14.2,12.2-52.3c0,0,3.4-11.5,52.3,10.9
	c0,0,120.8,303-62,490.2s-557.1,121.1-615.5-166.6C194.3,869.6,153,696.7,230.8,527.8z"/>
<path id="形状_5" class="st4" d="M329.3,829.5c0,0,61-7.2,87.6,98.5c0,0,16.2,57.3-46.2,65.7c0,0-71.4,7.5-54.7-66.9
	c0,0,8.1-30.7-3.6-45C312.3,881.8,291.9,839.2,329.3,829.5z"/>
<path id="形状_6" class="st4" d="M455.8,885.4c0,0,36.8-3.3,53.5,31.6c0,0,17.3,48.7-20.7,53.5c0,0-25.3,4.9-31.6-34.1
	c0,0-6.8-22.4-9.7-29.2C447.3,907.3,442.7,886.9,455.8,885.4z"/>
<path id="形状_7" class="st4" d="M386.5,1004.6c0,0-32.2-6.2-21.9,23.1c0,0,23,24.3,119.2,32.8c0,0,31.2,10.3,43.8-34.1l8.5-38.9
	c0,0,1.2-7.7-12.2-4.9c0,0-30.9,6.4-45,6.1c0,0-25.3-8.9-38.9,7.3C440,996.1,415.2,1018.7,386.5,1004.6z"/>
<path id="形状_14" class="st5" d="M594.5,737.3c0,0,32.4,38,20.1,86.4c-1.4,5.4-3.2,10.6-5.5,15.7c0,0,7.2-31,25.6,9.7"/>
<path id="形状_13" class="st5" d="M660.2,597.6c0,0-42.8,45.3-52.3,76.6c0,0,0.2,36.1-12.5,66.2c-1.7,4-3.6,7.9-5.8,11.6
	c0,0-33.8,27.6-45,71.7"/>
<path id="形状_2" class="st3" d="M276.9,201.8c0,0,189-250,397.4-171.6S878.5,413,878.5,413s-2,3.7-10.6-6.4
	c0,0-28.9-23.2-35.4-19.9c0,0-3.9,10.9-10.8,28.7c0,0-7.7,11.7-15.4,18.1c0,0-25.5-13.8-48.9-64.1c0,0-29.2-48.1-43.5-50.8
	c0,0-24.8,55.8-39.6,68.8c0,0-13.1-57.9-33.7-72.3l-38.8,37.1c0,0-33,29-47.2-4.5c0,0-11.1-13.2-25.8-59.3c0,0-5.5-24-28.2-31.6
	c0,0-12-5.2-22.6,14.1c0,0-30.3,32.2-43.6-16.5c0,0,3.5-20.7-5.5-24.9c0,0-33.7,11-50.2,16.5c0,0-9.7-15.4,2.5-42.6
	C381.2,203.4,283.3,219.7,276.9,201.8z"/>
<path id="形状_3" class="st4" d="M726.3,181.6c0,0-5.6-18.5,37.6-24.1c0,0,34.5,4.2,33.2,33.4c0,0,2.1,18.9-24.4,18.5
	C772.7,209.5,729.5,195.8,726.3,181.6z"/>
<path id="形状_4" class="st4" d="M751.5,235.4c0,0-4.9,13.9,9.5,33.7c0,0,4.3,26.3,19.9,37.6c0,0,37.5,20.6,40.1-24.4
	c0,0,9.5-48-48-57.4C773,225,756.6,218.7,751.5,235.4z"/>
</svg>
