<?xml version="1.0" encoding="utf-8"?>
<!-- Generator: Adobe Illustrator 22.0.0, SVG Export Plug-In . SVG Version: 6.00 Build 0)  -->
<svg version="1.1" id="图层_1" xmlns="http://www.w3.org/2000/svg" xmlns:xlink="http://www.w3.org/1999/xlink" x="0px" y="0px"
	 viewBox="0 0 1000 200.1" style="enable-background:new 0 0 1000 200.1;" xml:space="preserve">
<style type="text/css">
	.st0{fill:#FFFFFF;}
</style>
<path class="st0" d="M323.3,149.2L289,60.9h-0.9c0.9,6.9,0.9,15.7,0.9,25.5v63.7h-10.7v-100h17.6l31.4,81.4h0.9l31.4-81.4h17.6v99
	h-11.8V84.5c0-6.9,0-15.7,0.9-24.5h-0.9l-34.3,88.3L323.3,149.2L323.3,149.2z M460.6,149.2h-55.9v-99h55.9v10.7h-43.2v32.3h41.2V104
	h-41.2v35.3h43.2V149.2z M513.6,149.2h-11.8V60h-31.4v-9.8h74.5v10.7h-31.4v88.3H513.6z M622.5,149.2l-11.8-31.4h-40.2l-11.8,31.4
	h-11.8l39.2-100.1h9.8l39.2,100.1H622.5z M606.7,107l-11.8-30.4c-2-4-2.9-8.9-4-13.8c-0.9,4-2.9,8.9-4.9,13.8L574.3,107H606.7z
	 M679.3,149.2h-11.8V60h-31.4v-9.8h74.5v10.7h-31.4L679.3,149.2L679.3,149.2z M725.4,149.2v-99h11.8v99
	C737.1,149.2,725.4,149.2,725.4,149.2z M808.8,149.2l-34.3-88.3h-0.9c0.9,6.9,0.9,15.7,0.9,25.5v63.7h-9.8v-100h17.6l31.4,81.4l0,0
	l31.4-81.4h17.6v99H851V84.5c0-6.9,0-15.7,0.9-24.5H851l-34.3,89.2C816.6,149.2,808.8,149.2,808.8,149.2z M945.1,149.2h-55.9v-99
	h55.9v10.7h-43.2v32.3h41.2V104h-41.2v35.3h43.2V149.2z"/>
<path id="形状_4_拷贝" class="st0" d="M168.6,4.1c0,0-2.8,2.8,1.9,4.7C193.2,21,207.3,44.5,207.3,70v68.7
	c0,0-6.6,38.5-38.5,51.8c-0.9,0.9-0.9,2.8,0,4.7c0,0,0,2.8,4.7,0.9c22.6-11.3,37.6-32.9,39.5-57.4V62.5c0,0-1.9-41.4-41.4-59.3
	C170.6,3.2,169.7,3.2,168.6,4.1z"/>
<path id="形状_4_拷贝_1_" class="st0" d="M78.3,3.2C38.8,22,37,62.5,37,62.5v76.2c1.9,24.4,17.9,47.1,39.5,57.4
	c4.7,1.9,4.7-0.9,4.7-0.9c0.9-0.9,0.9-2.8,0-4.7c-31-13.2-38.5-51.8-38.5-51.8V71c0-25.4,14.1-49,36.7-61.2c3.8-2.8,1.9-4.7,1.9-4.7
	C81.2,3.2,80.2,3.2,78.3,3.2z"/>
<path class="st0" d="M91.6,133.4c-3.2,4.5-1,11.7,0.8,13.9c1.8,2.2,5.7,6.2,10.5,6.2h42.3c4.7,0,8.4-3.5,10.3-7.6
	c2.2-4.8,1.8-10-0.9-14.3l-15-20.1c-2.3-2.5-5.8-2.2-7.9-0.4c-1.9,1.9-2.2,5.2,0.4,8c1.6,2.1,12.2,16.2,12.2,16.2
	c1.4,2.6,0.4,5.9-2.2,7.4c-0.2,0.1-0.4,0.2-0.6,0.3h-34.8c0,0-7.4-2.3-1.9-9.5l53.7-66.9c3.2-4.5,1-11.7-0.8-13.9
	c-1.8-2.2-5.7-6.2-10.5-6.2h-42.3c-4.7,0-8.4,3.5-10.3,7.6c-2.2,4.8-1.8,10,0.9,14.3l15,20.1c2.3,2.5,5.8,2.2,7.9,0.4
	c1.9-1.9,2.2-5.2-0.4-8c-1.6-2.1-12.2-16.2-12.2-16.2c-1.4-2.6-0.4-5.9,2.2-7.4c0.2-0.1,0.4-0.2,0.6-0.3h34.8c0,0,7.4,2.3,1.9,9.5
	L91.6,133.4z"/>
</svg>
