<?xml version="1.0" encoding="utf-8"?>
<!-- Generator: Adobe Illustrator 22.0.0, SVG Export Plug-In . SVG Version: 6.00 Build 0)  -->
<svg version="1.1" id="图层_1" xmlns="http://www.w3.org/2000/svg" xmlns:xlink="http://www.w3.org/1999/xlink" x="0px" y="0px"
	 viewBox="0 0 1000 200.1" style="enable-background:new 0 0 1000 200.1;" xml:space="preserve">
<style type="text/css">
	.st0{fill:#FFFFFF;}
	.st1{fill:none;}
	.st2{enable-background:new    ;}
</style>
<g>
	<path class="st0" d="M265.2,69.2c13.3,0,23.2,2.8,29.7,8.5c6.5,5.6,9.7,14.7,9.7,27.4c0,12.4-3.4,21.7-10.4,28s-16.9,9.3-29.8,9.3
		c-9.9,0-20.3-0.5-30.9-1.4V70.8C244.3,69.7,254.9,69.2,265.2,69.2z M272.1,125.3c1-5.9,1.5-12.6,1.5-20.3c0-8.3-0.5-15-1.5-20
		s-3.2-7.6-6.5-7.6c-0.6,0-1.1,0-1.5,0.1s-0.7,0.2-1.1,0.4c-0.4,0.1-0.7,0.4-1.1,0.5v54.9c1.4,0.6,2.9,0.9,4.7,0.9
		C269.3,134.2,271.1,131.2,272.1,125.3z"/>
	<path class="st0" d="M336.1,126.8c0,2.6,0.2,4.9,0.7,7c0.5,2.2,1.4,4.3,2.6,6.4c-1.4,0.9-3.1,1.5-5.4,2s-4.3,0.7-6.3,0.7
		c-5.6,0-10.1-1.4-13.1-3.9c-3.1-2.6-4.5-6.5-4.5-11.9V86h26L336.1,126.8L336.1,126.8z"/>
	<path class="st0" d="M345,86l20.8-1.4l1.1,9.7c1.5-3.9,3.8-6.6,6.9-8.2s6.9-2.3,11.5-2.3c6.6,0,11.5,1.7,14.7,5
		c3.2,3.4,4.8,8.5,4.8,15.2v22.5c0,2.6,0.2,4.9,0.7,7c0.5,2.2,1.4,4.3,2.6,6.4c-1.4,0.9-3.1,1.5-5.3,2c-2.2,0.5-4.3,0.7-6.3,0.7
		c-5.6,0-9.9-1.4-13.1-3.9c-3.1-2.6-4.7-6.5-4.7-11.9v-23.3c0-0.4,0-1.7,0-4.1c0-2.3-0.4-4.2-1-5.6c-0.6-1.5-1.7-2.2-3.1-2.2
		c-1.5,0-2.6,0.7-3.1,2.1s-0.7,3.2-0.7,5.5v3.7V141h-26V86H345L345,86z"/>
	<path class="st0" d="M465.7,91.2c5.4,4.8,8,12,8,21.7c0,6.3-1.2,11.7-3.8,16.2c-2.6,4.7-6.1,8.2-10.9,10.7
		c-4.7,2.6-10.1,3.8-16.2,3.8c-6,0-11.3-1.2-16.1-3.7s-8.5-5.9-11.1-10.4c-2.6-4.4-3.9-9.7-3.9-15.6c0-9.7,2.7-17.2,8.1-22.3
		s13-7.7,23-7.7C452.7,84,460.4,86.3,465.7,91.2z M446.9,130.7c0.6-4.3,0.9-10.1,0.9-17.2v-3.3c0-6.1-0.4-10.9-1-14.5
		s-2-5.3-4.1-5.3s-3.4,1.7-4.1,5c-0.6,3.3-0.9,8-0.9,13.8v5.4c0,6.8,0.2,12.3,0.9,16.3c0.6,4.2,2,6.1,4.2,6.1S446.3,135,446.9,130.7
		z"/>
	<path class="st0" d="M502.6,91.7c-0.7,1-1.1,2.1-1.1,3.4c0,2.7,1.1,4.9,3.2,6.8c2.1,1.8,5.4,3.9,9.9,6.3c3.4,1.7,6.1,3.3,8.1,4.5
		c2,1.4,3.7,2.9,5.2,4.9c1.4,2,2.1,4.2,2.1,6.8c0,6.9-2.6,11.9-7.9,14.9c-5.2,2.9-12,4.4-20.4,4.4c-6.3,0-11.9-1-16.9-2.7
		c-5-1.8-7.5-4.9-7.5-9.2c0-3.2,1.4-5.6,4.2-7.2c2.8-1.6,6.1-2.3,9.9-2.3c1,0,2.2,0.1,3.7,0.2c1.4,0.1,2.5,0.4,2.9,0.6
		c-0.1,2.5-0.2,4.4-0.2,5.8c0,2.9,0.2,5,0.7,6.5s1.7,2.2,3.7,2.2c1.5,0,2.7-0.6,3.7-1.8c0.9-1.2,1.4-2.6,1.4-4.3
		c0-2.7-1.1-5-3.3-6.9c-2.2-1.8-5.5-3.8-9.9-6c-3.4-1.7-6.1-3.3-8.1-4.5c-2-1.4-3.7-2.9-5.2-4.9c-1.4-2-2.1-4.2-2.1-6.8
		c0-6.5,2.6-11.2,7.7-14c5.2-2.8,11.7-4.2,19.6-4.2c5.6,0,11.1,0.7,16.2,2.3c5.2,1.5,7.7,4.1,7.7,7.7c0,2.8-1.5,5-4.4,6.8
		c-2.9,1.7-6.1,2.5-9.7,2.5c-3.4,0-5.5-0.2-6.5-0.7l0.2-5.8c0-1.8-0.4-3.3-1-4.5s-1.6-1.8-2.9-1.8C504.3,90.3,503.3,90.7,502.6,91.7
		z"/>
	<path class="st0" d="M564.6,142c-2.6,1.1-5.4,1.7-8.7,1.7c-6.9,0-12.6-1.4-17.2-3.9c-4.7-2.6-6.9-6.8-6.9-12.4
		c0-7.1,3.4-11.9,10.3-14.1c6.9-2.3,15.7-3.4,26.4-3.4v-9.5c0-3.1-0.4-5.5-1-7.4s-2.1-2.7-4.2-2.7c-2.8,0-4.7,1-5.6,2.8
		c-1,2-1.5,4.5-1.5,8.1c0,1.4,0.1,3.3,0.2,5.8c-0.6,0.2-1.6,0.5-2.9,0.6c-1.4,0.1-2.6,0.2-3.6,0.2c-3.9,0-7.2-0.7-10.1-2.3
		c-2.8-1.6-4.2-4.1-4.2-7.2c0-5.5,2.9-9.3,9-11.3c6-2,12.4-2.9,19.4-2.9c9.6,0,17.1,1.5,22.5,4.4s8,8.2,8,16V127
		c0,2.6,0.2,4.9,0.7,7c0.5,2.2,1.4,4.3,2.6,6.4c-1.4,0.9-3.1,1.5-5.5,2c-2.3,0.5-4.4,0.7-6.4,0.7c-8,0-13.3-2.1-16-6.4
		C568.9,139.1,567,140.9,564.6,142z M567,132.7c0.9-2.1,1.2-4.5,1.2-7.4v-10.1c-4.2,0-7,1-8.7,2.7c-1.7,1.8-2.6,4.8-2.6,9
		c0,2.6,0.5,4.7,1.4,6.4s2.3,2.6,4.4,2.6C564.8,135.8,566.3,134.8,567,132.7z"/>
	<path class="st0" d="M663.1,126.8c0,2.6,0.2,4.9,0.7,7c0.5,2.2,1.4,4.3,2.6,6.4c-1.4,0.9-3.2,1.5-5.5,2s-4.5,0.7-6.4,0.7
		c-8,0-13.3-2.1-16-6.4c-2,2.6-4.2,4.4-6.8,5.5s-5.6,1.6-9.2,1.6c-5.5,0-9.7-1.1-12.6-3.3c-2.9-2.2-4.9-5.3-6-9.3
		c-1.1-4.1-1.6-9.1-1.6-15.3V85.9h26.6V115c0,7.5,0.1,12.6,0.5,15.5c0.4,2.8,1.2,4.2,2.7,4.2c2.1,0,3.4-1,3.9-2.9s0.9-4.7,0.9-8.2
		V85.8h26L663.1,126.8L663.1,126.8z"/>
	<path class="st0" d="M698.4,95.7c-0.4,1.4-0.5,3.8-0.5,7.4v38.2h-26V86l20.8-1.4l1.1,9.7c1.4-3.4,3.3-6.1,6.3-7.9
		c2.8-1.8,6.1-2.7,10.1-2.7c5.2,0,9.2,1.4,12.2,4.2c2.9,2.8,4.5,6.8,4.5,11.8c0,4.4-1.2,7.9-3.7,10.3c-2.5,2.5-6,3.7-10.4,3.7
		c-1,0-2.2-0.1-3.7-0.2s-2.6-0.5-3.2-0.9c0.4-1.7,0.5-4.1,0.5-7.1c0-3.6-0.4-6.4-0.9-8.6c-0.6-2.2-2-3.2-4.2-3.2
		C699.6,93.8,698.8,94.4,698.4,95.7z"/>
</g>
<path class="st0" d="M339.5,53.7c-0.1-0.1-0.1-0.2-0.1-0.5c0.1-0.4,0.1-0.7,0.1-1.1c0.1-1.2,0.1-2.5-0.1-3.8c-0.2-1-0.5-2.1-0.7-3.1
	c0-0.1,0-0.2-0.1-0.2s-0.1,0.1-0.1,0.2c-0.4,1-0.6,1.8-1,2.8c-0.4,1.1-0.9,2.2-1.4,3.2c-0.1,0.2-0.2,0.6-0.5,0.6
	c-1,0.4-1.7,0.9-2.5,1.6c-1.2,1.2-2.2,2.7-2.9,4.3c-0.1,0.1-0.1,0.4-0.4,0.5c-0.5,0.1-1,0.4-1.4,0.6c-0.1,0.1-0.2,0.1-0.2-0.1
	c0-0.5-0.2-0.9-0.2-1.2c-0.2-0.9-0.5-1.6-1-2.3c-0.1-0.1-0.1-0.2,0-0.5c0.2-0.6,0.4-1.2,0.5-1.8c0.4-1.8,0.1-3.7-0.5-5.4
	c-0.5-1.4-1.2-2.5-2.3-3.3c-0.1-0.1-0.2-0.2-0.1-0.4c0-0.2,0-0.5-0.1-0.7c-0.1-1.1-0.4-2.1-0.7-3.1c-0.4-1-0.7-2-1.1-2.9
	c0,0,0-0.1-0.1-0.1s-0.1,0.1-0.1,0.1c-0.2,0.6-0.5,1.2-0.7,1.8c-0.2,0.7-0.6,1.5-0.7,2.3c-0.1,0.7-0.2,1.5-0.2,2.2
	c0,0.4,0,0.7-0.4,1c-0.7,0.5-1.2,1.4-1.7,2.1c-0.7,1.5-1,2.9-0.9,4.5c0,0.2,0,0.4,0,0.6c0,1,0.2,2,0.6,2.9c0.1,0.2,0.1,0.5,0,0.6
	c-0.5,1.1-0.9,2.2-1.1,3.3c0,0.1,0,0.4-0.1,0.4s-0.4,0-0.4-0.2c0-0.1-0.1-0.1-0.2-0.1c-0.4,0.1-0.5-0.1-0.9-0.1
	c-0.4-0.1-0.4-0.4-0.5-0.6c0-0.1-0.1-0.1-0.1-0.2c-0.6-1.2-1.4-2.2-2.3-3.2c-0.7-0.9-1.7-1.5-2.7-2c-0.2-0.1-0.5-0.1-0.7-0.5
	c-1-1.6-1.6-3.3-2.2-4.9c-0.2-0.5-0.5-1.1-0.6-1.6c-0.1,0.4-0.2,0.7-0.4,1.1c-0.2,1-0.5,2-0.6,2.9c-0.1,1.2-0.1,2.5,0.1,3.7
	c0.1,0.6,0.2,1.1-0.2,1.6c0,0,0,0.1-0.1,0.2c-0.2,0.6-0.1,1.4-0.2,2.1v0.1v0.1l0,0c0,0.1,0,0.1,0,0.2l0,0c0.1,1,0.4,2.1,0.9,2.9
	c0.7,1.6,1.8,2.9,3.3,3.9c0.1,0.1,0.2,0.2,0.2,0.4c0.2,1.6,1,3.1,1.8,4.3c0.5,0.6,1,1.2,1.5,1.7c1,1.2,1.8,2.5,2.7,3.8l0,0
	c0.4,0.7,0.7,1.4,1.2,2c0.4,0.6,0.7,1.1,1.2,1.6c0.2-0.1,0.4,0,0.4,0.4c0.4,0.4,0.7,0.6,1.1,0.7c2.2,1,4.5,1,6.9,0.2
	c1.6-0.5,2.6-1.7,3.4-3.2c0.4-0.5,0.6-1.1,1-1.6v-0.1c0.1,0,0.1-0.1,0.1-0.1c0.9-1.4,1.6-2.6,2.6-3.8c0.5-0.6,1-1.2,1.4-1.8
	c0.6-0.9,1-1.8,1.4-2.8c0-0.1,0.1-0.2,0.1-0.4c-0.1-0.2,0-0.5,0.1-0.7c0-0.5,0.2-0.7,0.7-1.1c1.5-1.2,2.6-2.7,3.2-4.5
	c0-0.1,0-0.2,0-0.4c0.2-0.6,0.4-1.2,0.4-1.8C340.1,56,340,54.9,339.5,53.7z"/>
<g>
	<g>
		<path class="st0" d="M143.8,58.3c2.1,2.6,4.9,1.8,4.9,1.8c0.8-0.1,1.1-0.4,1.1,0.2s-1.3,0.8-1.5,0.7c-0.4-0.1-3.4-0.8-1.4,0.6
			c2,1.4,3.9-0.4,3.9-0.4c1.4-1.6,0-2.9,0-2.9c-1.9-2.4-5.4-3-5.4-3c-2.8-0.8-4,0.6-4,0.6c-1.1,1.4,0.2,1.2,0.2,1.2
			c0.3-0.5,1.2-0.7,1.2-0.7C142.8,57.5,143.8,58.3,143.8,58.3z"/>
		<path class="st0" d="M142.9,60c-1.2-0.4-1.8-2-1.6-2.2s0.7,0.6,0.7,0.6l1.5,1.4C143.4,60.5,142.9,60,142.9,60z"/>
	</g>
	<path class="st0" d="M83.4,68.9c-5.8,1-9.1,3.1-10,3.3c-0.9,0.3-6.2,3.4-6.9,4c-0.8,0.7-1.5,0.9-1.9,0.2s0.2-1.2,0.2-1.2
		c1.1-1.6,7-4.7,7-4.7c5.1-3.3,12.8-4.2,12.8-4.2"/>
	<path class="st0" d="M67.4,75.5c-0.2,3.6,2,7.7,2,7.7c2.8,6.7,7.2,9.3,7.2,9.3c6.7,5.3,13,4.3,13,4.3c6.9,0,11.4-4.7,11.4-4.7h-3
		l-0.2,0.2c-0.6,0.9-5.3,2.2-6.7,2.5c-1.4,0.3-4,0.2-4,0.2c-4.5-0.6-8.2-3.2-8.2-3.2c-4.7-3-6.7-7.5-6.7-7.5c-3.7-6.4-3-9.7-3-9.7
		L67.4,75.5z"/>
	<path class="st0" d="M108.8,76.2c-0.2,3.1-1.6,6.9-1.6,6.9c-2,5.5-5.2,8-6,8.7S98,92,98,92s-0.5,0-1.2-0.1S91,91.2,87.4,88
		S83,82.4,83,82.4c1.2-0.3,2.2-0.8,2.2-0.8c6.2-2.5,3.3-4.9,3.3-4.9c-1.5-1.7-6.8-1.2-6.8-1.2c-0.4-2.4,1.2-6,1.2-6l0.3-0.5
		c0.2-1.1,1.3-2.6,1.3-2.6c0.2-0.6,6.9-0.7,6.9-0.7c6.2-0.2,10.9,1.5,10.9,1.5c4.6,1.2,7.5,3.4,8.5,4.2c1,0.8,0,1.5,0,1.5
		c-0.5,0.7-2-1.1-2-1.1S109,73.2,108.8,76.2z"/>
	<line class="st1" x1="94.1" y1="96.4" x2="94.1" y2="101.1"/>
	<path class="st0" d="M173.6,15.2H36.3c-9.2,0-16.8,7.5-16.8,16.8v137.3c0,1.8,0.3,3.4,0.8,5c0.1-0.3,0.1-0.5,0.1-0.5
		c0.9-5.7,4.4-9.8,4.4-9.8c1.5-1.9,2.3,0.1,2.3,0.1c1,7.5,4.2,10.2,4.2,10.2c5.4,5.5,15.4,3.7,15.4,3.7c8.6-1.3,12.6-5.1,12.6-5.1
		c5-4.2,6.9-11.3,6.9-11.3c1.4-5.8,0.3-10.9,0.3-10.9c-1.2-6.4-6-9.2-6-9.2c-1.4-0.8-5.2-4-5.2-4c-3.9-4.1-3.9-7.6-3.9-7.6
		c-0.6-5.3,3.7-11.1,3.7-11.1c0.7-2.1,0.3-5,0.3-5c-0.8-8.1,0-19.8,0-19.8c0.8-11.5,6.2-19,6.2-19c-0.2-18,19.5-20.2,19.5-20.2
		c8.3-1.5,17.4,2.6,17.4,2.6c1.2,0.4,2.8,0.6,4.6,0.6c0,0,0,0,0.1,0c5.5-0.1,12.8-1.8,16.6-2.9c0.7-0.2,1.5-0.5,2.5-0.7l0,0
		c0.5-0.1,1.2-0.3,2.1-0.5c4.7-1,10.5-1.8,14-2.2c11-1.9,20.9,0.9,23.3,1.7c1.7,0.5,3.6,1.4,5.6,2.5c10.2,5.2,13.9,10.3,14.3,10.9
		c0.8,1.1,1.5,2.2,2,3.2c0.1,0.2,0.2,0.4,0.3,0.6l0,0c0.1,0.2,0.2,0.3,0.2,0.5c1,2.2,1.2,3.7,1.2,3.7c0.5,1.9,0.5,4.1,0.4,6.3
		c-0.1,2.3-0.5,5-1.2,8c0,0-0.4,1.4-1.2,3.2c-1.8,4.5-4.6,5.7-4.6,5.7c0.3,5.5-2,7.6-3.3,8.3c0,0-1.9,1.4-3.8-0.3
		c-1.3-1-1.9-2.7-1.9-2.7c-0.7,0.5-2.6,3.3-2.6,3.3l-4.7,7.6c0.7,0.5,0.9,1.9,0.9,1.9c0.2,4.5-2.6,4.8-2.6,4.8
		c-1.8,0.2-3.2-2.4-3.2-2.4c-2,1.1-10.6,2.7-10.6,2.7c-4.3,0.8-6,3.1-6,3.1c-1.2,1.1-1.8,2.5-1.7,2.8l-0.7,0.1l0,0l1.1,0.3l5.4,1.7
		l6.2,2.4c0.9-2.2,2.6-3.5,4-3s1.8,2.6,1.2,4.8l4.7,1.4l3,0.9c0,0,0.6-0.3,1-0.6c1-1.7,2.4-2.7,3.6-2.2c1.4,0.5,1.9,2.8,1.1,5.2
		l0.1,0.1c0.6,0,0.9,0.5,0.9,0.5c2.6,5,1.1,12.9,1.1,12.9c-2.2,4.7-7.6,8.6-7.6,8.6c-6.3,4.8-14.4,7.2-14.4,7.2
		c-5.4,1.8-13.4,2.6-13.4,2.6c6.6,3.2,10,7.7,10,7.7c2.3,1.9,4.1,6.9,4.6,8.2h22.2c9.2,0,16.8-7.5,16.8-16.8V31.9
		C190.3,22.7,182.8,15.2,173.6,15.2z"/>
</g>
<g class="st2">
	<path class="st0" d="M806.4,70.4c5.4,2,8.2,5.2,8.2,9.7c0,4.3-1.5,7.5-4.5,9.5s-6.9,3-11.7,3c-1.2,0-3-0.1-5.7-0.2
		c0.4-3.1,0.5-5.8,0.5-7.9c0-5.7-2.2-8.6-6.6-8.6c-1.9,0-3.4,0.6-4.5,1.8c-1.1,1.2-1.6,2.8-1.6,4.8c0,2.7,0.7,4.9,2.1,6.7
		c1.4,1.8,3.2,3.3,5.3,4.3c2.1,1.1,5,2.4,8.6,3.8c4.3,1.7,7.9,3.3,10.5,4.8c2.7,1.6,5,3.7,6.8,6.4c1.9,2.7,2.8,6.2,2.8,10.4
		c0,8.7-3.2,15-9.5,18.9s-14.7,5.8-24.9,5.8c-7.5,0-14-1-19.5-3.1s-8.3-5.7-8.3-10.9c0-4.5,1.6-8,4.7-10.4c3.1-2.5,7-3.7,11.5-3.7
		c1.3,0,3.2,0.1,5.7,0.2c-0.4,2.8-0.5,4.8-0.5,6.2c0,4.2,0.6,7.5,1.7,9.8c1.1,2.3,3.3,3.5,6.6,3.5c2.5,0,4.4-0.6,5.7-1.9
		c1.3-1.3,2-3.1,2-5.5c0-2.7-0.7-4.9-2.1-6.7c-1.4-1.8-3.2-3.3-5.3-4.3c-2.1-1.1-5-2.4-8.6-3.8c-4.3-1.7-7.9-3.3-10.5-4.8
		c-2.7-1.6-5-3.7-6.8-6.4c-1.9-2.7-2.8-6.2-2.8-10.4c0-5.1,1.6-9.4,4.7-13s7.2-6.3,12.2-8.2c5-1.8,10.3-2.7,15.9-2.7
		C795,67.4,801,68.4,806.4,70.4z"/>
	<path class="st0" d="M875.3,91c5.4,4.9,8,12.1,8,21.9c0,6.2-1.3,11.7-3.9,16.3c-2.6,4.6-6.2,8.2-10.9,10.8
		c-4.7,2.5-10.1,3.8-16.3,3.8c-6,0-11.4-1.2-16.1-3.7c-4.7-2.5-8.4-5.9-11.1-10.4c-2.6-4.5-4-9.7-4-15.7c0-9.8,2.7-17.3,8.2-22.4
		c5.4-5.2,13.1-7.8,23-7.8C862.3,83.7,870,86.1,875.3,91z M856.4,130.6c0.6-4.3,0.9-10.1,0.9-17.3V110c0-6.2-0.3-11-0.9-14.5
		c-0.6-3.5-2-5.3-4.1-5.3s-3.5,1.7-4.1,5.1s-0.9,8-0.9,13.9v5.4c0,6.8,0.3,12.3,0.9,16.4c0.6,4.1,2,6.2,4.1,6.2
		S855.9,135,856.4,130.6z"/>
	<path class="st0" d="M893.2,143.1V90.7h-7.1v-4.9h7.1l0.3-5c0.4-6.8,3.5-11.5,9.2-14s13-3.8,21.9-3.8c6.3,0,11.8,0.7,16.5,2.1
		s7,4.1,7,8.1c0,2.8-1.4,4.8-4.3,6c-2.9,1.3-6.2,1.9-9.9,1.9c-3.3,0-5.5-0.3-6.5-0.9c0.1-1.2,0.2-3,0.2-5.7c0-1.8-0.3-3.3-0.8-4.5
		s-1.5-1.8-2.9-1.8c-2,0-3.3,1-3.8,2.9s-0.8,4.6-0.8,8.1v6.5h8.5v4.9h-8.5v50.6L893.2,143.1z"/>
	<path class="st0" d="M976.9,126.7c0,2.5,0.3,4.9,0.8,7.1c0.5,2.2,1.4,4.3,2.6,6.4c-1.3,0.9-3.1,1.5-5.4,2c-2.3,0.5-4.4,0.7-6.3,0.7
		c-5.7,0-10.1-1.3-13.2-3.9c-3.1-2.6-4.6-6.6-4.6-12V85.9h26.1L976.9,126.7L976.9,126.7z M973.6,61.7c2.3,1.7,3.5,4,3.5,6.8
		c0,2.9-1.2,5.1-3.6,6.7c-2.4,1.6-5.6,2.4-9.5,2.4c-3.8,0-7-0.8-9.3-2.3c-2.4-1.6-3.6-3.8-3.6-6.6c0-2.9,1.3-5.2,3.8-7
		c2.5-1.7,5.8-2.6,9.7-2.6C968.3,59.2,971.3,60.1,973.6,61.7z"/>
</g>
<path class="st0" d="M981,53.7c-0.1-0.1-0.1-0.2-0.1-0.5c0.1-0.4,0.1-0.7,0.1-1.1c0.1-1.2,0.1-2.5-0.1-3.8c-0.2-1-0.5-2.1-0.7-3.1
	c0-0.1,0-0.2-0.1-0.2s-0.1,0.1-0.1,0.2c-0.4,1-0.6,1.8-1,2.8c-0.4,1.1-0.9,2.2-1.4,3.2c-0.1,0.2-0.2,0.6-0.5,0.6
	c-1,0.4-1.7,0.9-2.5,1.6c-1.2,1.2-2.2,2.7-2.9,4.3c-0.1,0.1-0.1,0.4-0.4,0.5c-0.5,0.1-1,0.4-1.4,0.6c-0.1,0.1-0.2,0.1-0.2-0.1
	c0-0.5-0.2-0.9-0.2-1.2c-0.2-0.9-0.5-1.6-1-2.3c-0.1-0.1-0.1-0.2,0-0.5c0.2-0.6,0.4-1.2,0.5-1.8c0.4-1.8,0.1-3.7-0.5-5.4
	c-0.5-1.4-1.2-2.5-2.3-3.3c-0.1-0.1-0.2-0.2-0.1-0.4c0-0.2,0-0.5-0.1-0.7c-0.1-1.1-0.4-2.1-0.7-3.1c-0.4-1-0.7-2-1.1-2.9
	c0,0,0-0.1-0.1-0.1s-0.1,0.1-0.1,0.1c-0.2,0.6-0.5,1.2-0.7,1.8c-0.2,0.7-0.6,1.5-0.7,2.3c-0.1,0.7-0.2,1.5-0.2,2.2
	c0,0.4,0,0.7-0.4,1c-0.7,0.5-1.2,1.4-1.7,2.1c-0.7,1.5-1,2.9-0.9,4.5c0,0.2,0,0.4,0,0.6c0,1,0.2,2,0.6,2.9c0.1,0.2,0.1,0.5,0,0.6
	c-0.5,1.1-0.9,2.2-1.1,3.3c0,0.1,0,0.4-0.1,0.4s-0.4,0-0.4-0.2c0-0.1-0.1-0.1-0.2-0.1c-0.4,0.1-0.5-0.1-0.9-0.1
	c-0.4-0.1-0.4-0.4-0.5-0.6c0-0.1-0.1-0.1-0.1-0.2c-0.6-1.2-1.4-2.2-2.3-3.2c-0.7-0.9-1.7-1.5-2.7-2c-0.2-0.1-0.5-0.1-0.7-0.5
	c-1-1.6-1.6-3.3-2.2-4.9c-0.2-0.5-0.5-1.1-0.6-1.6c-0.1,0.4-0.2,0.7-0.4,1.1c-0.2,1-0.5,2-0.6,2.9c-0.1,1.2-0.1,2.5,0.1,3.7
	c0.1,0.6,0.2,1.1-0.2,1.6c0,0,0,0.1-0.1,0.2c-0.2,0.6-0.1,1.4-0.2,2.1v0.1v0.1l0,0c0,0.1,0,0.1,0,0.2l0,0c0.1,1,0.4,2.1,0.9,2.9
	c0.7,1.6,1.8,2.9,3.3,3.9c0.1,0.1,0.2,0.2,0.2,0.4c0.2,1.6,1,3.1,1.8,4.3c0.5,0.6,1,1.2,1.5,1.7c1,1.2,1.8,2.5,2.7,3.8l0,0
	c0.4,0.7,0.7,1.4,1.2,2c0.4,0.6,0.7,1.1,1.2,1.6c0.2-0.1,0.4,0,0.4,0.4c0.4,0.4,0.7,0.6,1.1,0.7c2.2,1,4.5,1,6.9,0.2
	c1.6-0.5,2.6-1.7,3.4-3.2c0.4-0.5,0.6-1.1,1-1.6v-0.1c0.1,0,0.1-0.1,0.1-0.1c0.9-1.4,1.6-2.6,2.6-3.8c0.5-0.6,1-1.2,1.4-1.8
	c0.6-0.9,1-1.8,1.4-2.8c0-0.1,0.1-0.2,0.1-0.4c-0.1-0.2,0-0.5,0.1-0.7c0-0.5,0.2-0.7,0.7-1.1c1.5-1.2,2.6-2.7,3.2-4.5
	c0-0.1,0-0.2,0-0.4c0.2-0.6,0.4-1.2,0.4-1.8C981.6,56,981.5,54.9,981,53.7z"/>
</svg>
